<?xml version="1.0" encoding="utf-8" ?>
<svg baseProfile="full" height="200mm" version="1.1" viewBox="0,0,200,200" width="200mm" xmlns="http://www.w3.org/2000/svg" xmlns:ev="http://www.w3.org/2001/xml-events" xmlns:xlink="http://www.w3.org/1999/xlink"><defs /><rect fill="#1a1a1a" height="200" width="200" x="0" y="0" /><text alignment-baseline="middle" fill="#e1ed5e" style="dominant-baseline: central; font-size:9.0px; font-family:Arial;" text-anchor="middle" x="100.0" y="100.0">2022</text><line stroke="#e1ed5e" stroke-width="0.3" x1="100.0" x2="100.0" y1="15.0" y2="10.0" /><path d="M 100.0 14.0 a86.0,86.0 0 0,1 42.46469731375804,11.215312516191453" fill="none" id="id85" stroke="none" /><text fill="#e1ed5e" style="font-size:6.75px; font-family:Arial;" text-anchor="middle"><textPath startOffset="22.20632615414155" xlink:href="#id85">January</textPath></text><path d="M 100.0 79.0 l 0.0 -39.71855958708321 a60.71855958708321,60.71855958708321 0 0,0 1.045170191441734,0.008996109809744694 l -0.6836897121692056 39.71267485388203" fill="#5aff2a" stroke="none" /><path d="M 100.36148047927253 79.00311137660856 l 0.6791327588443625 -39.44798050132313 a60.453826011388365,60.453826011388365 0 0,0 1.0403048819561638,0.02686800590256728 l -1.358064275995394 39.4304457032782" fill="#5dff2a" stroke="none" /><path d="M 102.16513564639614 79.11191278185805 l 2.436143783654007 -23.502630846062505 a44.628551653051545,44.628551653051545 0 0,0 0.7634315108529622,0.08578042549826034 l -2.840341998016694 23.457214467093646" fill="#ffc512" stroke="none" /><path d="M 102.52436894288641 79.15227682838746 l 4.741332217603425 -39.15670956727182 a60.44271967465429,60.44271967465429 0 0,0 1.0318011796329807,0.13395740600849698 l -5.414648125744252 39.069293838099185" fill="#5dff2a" stroke="none" /><path d="M 102.88285421437855 79.19881850522331 l 5.476630050096349 -39.51652327183641 a60.89422374478801,60.89422374478801 0 0,0 1.037031586850195,0.15283149876602023 l -6.1560306173752 39.41639728890943" fill="#58ff2a" stroke="none" /><path d="M 103.2404852339499 79.25152402106235 l 3.6439217306052214 -23.33163617117724 a44.61447462898472,44.61447462898472 0 0,0 0.7577466706484283,0.12503469328100253 l -4.044997607392525 23.265455214956614" fill="#ffc512" stroke="none" /><path d="M 103.59715602781102 79.31037775812273 l 4.057414785716235 -23.33687461596156 a44.6869654363842,44.6869654363842 0 0,0 0.7567096634421075,0.13828385422760056 l -4.4585195702612435 23.26357528038322" fill="#ffc612" stroke="none" /><path d="M 103.95276090670814 79.375362276772 l 4.448401112755431 -23.21077939282496 a44.6332086793637,44.6332086793637 0 0,0 0.7533099242490447,0.1511068840325318 l -4.847277446471602 23.13076855271522" fill="#ffc512" stroke="none" /><path d="M 104.307194497241 79.44645832069477 l 4.855128707724366 -23.168234059670425 a44.67148800164962,44.67148800164962 0 0,0 0.7512410005081401,0.16419218541426783 l -5.253212432386034 23.081228376160286" fill="#ffc612" stroke="none" /><path d="M 104.66035177308747 79.52364482259891 l 5.247969077645403 -23.058190459878887 a44.64786093336926,44.64786093336926 0 0,0 0.7479076144833628,0.17700556842233345 l -5.64410037909129 22.964438979315684" fill="#ffc512" stroke="none" /><path d="M 105.01212808612495 79.60689891045804 l 10.384046295719264 -42.25009859849927 a64.50746199279557,64.50746199279557 0 0,0 1.0760185975983272,0.2743010990812989 l -11.109773782002616 42.06509450324911" fill="#30ff33" stroke="none" /><path d="M 105.36241919743992 79.69619591428918 l 6.032903746766221 -22.842469272221493 a44.62571332404863,44.62571332404863 0 0,0 0.7410038300473014,0.20254433833377303 l -6.425205466037234 22.735238393061426" fill="#ffc512" stroke="none" /><path d="M 105.71112130821622 79.79150937346287 l 6.458264144094239 -22.852214718652622 a44.74727128118717,44.74727128118717 0 0,0 0.7394162316550238,0.21585587414820798 l -6.850670593472691 22.73766051558571" fill="#ffc712" stroke="none" /><path d="M 106.0581310904928 79.89281104454417 l 6.803884454490396 -22.582375375175072 a44.585091080073646,44.585091080073646 0 0,0 0.7329250285650621,0.22772337407139212 l -7.1915948557661755 22.461911866221158" fill="#ffc412" stroke="none" /><path d="M 106.40334571778207 80.00007090966166 l 7.196791049059502 -22.47814142838858 a44.60213218076837,44.60213218076837 0 0,0 0.7291751496320023,0.24039758245897347 l -7.582649020933922 22.35093012167037" fill="#ffc512" stroke="none" /><path d="M 107.4271985657038 80.35727306442388 l 13.910507604473228 -36.78914734711019 a60.33120369810072,60.33120369810072 0 0,0 0.9682205391473471,0.37565452698058543 l -14.541711308620242 36.544250116239056" fill="#5fff29" stroke="none" /><path d="M 107.76421540070413 80.48803036053334 l 17.44720568260292 -43.8459432155379 a68.18974170930824,68.18974170930824 0 0,0 1.0868669751765234,0.443360328779027 l -18.19935652736783 43.53912200057529" fill="#35ff68" stroke="none" /><path d="M 108.43124777332544 80.76684994638697 l 9.467189850969763 -21.59631502774906 a44.58025670878256,44.58025670878256 0 0,0 0.7001602774237035,0.31414150729780155 l -9.837532246860247 21.430153189934728" fill="#ffc412" stroke="none" /><line stroke="#e1ed5e" stroke-width="0.3" x1="143.23703022742887" x2="145.7803849466894" y1="26.81831364943548" y2="22.513508569990506" /><path d="M 143.74570117128098 25.957352633546492 a86.0,86.0 0 0,1 28.547481713284135,27.462654790039103" fill="none" id="id86" stroke="none" /><text fill="#e1ed5e" style="font-size:6.75px; font-family:Arial;" text-anchor="middle"><textPath startOffset="19.985693538727396" xlink:href="#id86">February</textPath></text><path d="M 112.19680574252982 82.90503203632743 l 13.780192212982039 -19.314232708712197 a44.726215091181714,44.726215091181714 0 0,0 0.6228757659611405,0.45254573363467976 l -14.110613295296966 19.074167740260844" fill="#ffc612" stroke="none" /><path d="M 112.48926042617603 83.11751280151076 l 14.02898152169611 -18.963821144403333 a44.58895578301443,44.58895578301443 0 0,0 0.613106308678229,0.46177896066966423 l -14.353333984132721 18.71952559422782" fill="#ffc412" stroke="none" /><path d="M 112.77801427241765 83.33499621200491 l 14.32494599692719 -18.682502164434435 a44.54230160666067,44.54230160666067 0 0,0 0.6044336131508616,0.4717700224313543 l -14.644412165237481 18.433153752779855" fill="#ffc412" stroke="none" /><path d="M 113.06298171725822 83.55741782278167 l 14.71274802870458 -18.51916918746614 a44.65215808230077,44.65215808230077 0 0,0 0.597693803985516,0.4832934893383419 l -15.029345231254586 18.263169600863666" fill="#ffc512" stroke="none" /><path d="M 113.34407831869373 83.78471172551755 l 15.207392033590914 -18.479526261644715 a44.93235599179782,44.93235599179782 0 0,0 0.5929839909426956,0.49660703910786475 l -15.523233561492725 18.215018065143028" fill="#ffca12" stroke="none" /><path d="M 113.89432698308785 84.25364557470407 l 26.057009193086227 -29.53024659034946 a60.38277785752836,60.38277785752836 0 0,0 0.7734430372432035,0.6944047955169723 l -26.56146321792542 29.07734278606319" fill="#5eff2a" stroke="none" /><path d="M 114.68862486808459 84.99185889309783 l 16.43495999896363 -16.792463621742936 a44.49669646259011,44.49669646259011 0 0,0 0.5427838402160441,0.5404529539100199 l -16.721579639347 16.507074817182797" fill="#ffc312" stroke="none" /><path d="M 114.94478906791727 85.2469230424477 l 16.80688754388196 -16.59128838988511 a44.61656874630671,44.61656874630671 0 0,0 0.5348373706853511,0.5511969240234147 l -17.089989178270418 16.299527270311582" fill="#ffc512" stroke="none" /><path d="M 115.19652480421416 85.50635884689758 l 17.090179450092897 -16.299708741506613 a44.61683168196625,44.61683168196625 0 0,0 0.525273275329791,0.5603249065018399 l -17.36822004739315 16.003114418126717" fill="#ffc512" stroke="none" /><path d="M 115.4437574822437 85.77008943001954 l 17.381966959094473 -16.015780851431447 a44.63552435737634,44.63552435737634 0 0,0 0.5157663733216765,0.569522111443864 l -17.655076973032187 15.714205952718034" fill="#ffc512" stroke="none" /><path d="M 115.68641384162765 86.03803664274999 l 29.4134996330251 -26.179992969136862 a60.37697287154033,60.37697287154033 0 0,0 0.6842957521888633,0.7822683372334648 l -29.85978724879181 25.66980907570045" fill="#5eff2a" stroke="none" /><path d="M 115.9244219780498 86.31012108654704 l 30.04443721066116 -25.82854862824744 a60.62047616507282,60.62047616507282 0 0,0 0.673433985460413,0.797133426771758 l -30.48458180960869 25.307556251846574" fill="#5bff2a" stroke="none" /><path d="M 116.15771136456269 86.58626213691792 l 18.17030910321999 -15.084547415317896 a44.61575117652481,44.61575117652481 0 0,0 0.48546506766569786,0.5951227709224094 l -18.427272662962093 14.769540474787386" fill="#ffc512" stroke="none" /><path d="M 116.60985879189232 87.15038557335679 l 18.69888638066026 -14.465714802848154 a44.64117714146616,44.64117714146616 0 0,0 0.4649571189312372,0.6118290668526459 l -18.94511943981561 14.141700960114475" fill="#ffc512" stroke="none" /><path d="M 116.82858285166822 87.43820079747576 l 18.835187963601154 -14.059641933373186 a44.50399619041093,44.50399619041093 0 0,0 0.45296037516390264,0.6178374426764551 l -19.074410951278683 13.733342047025236" fill="#ffc312" stroke="none" /><path d="M 117.04232023915458 87.72973835380427 l 19.221738164611473 -13.839415834504301 a44.68553669877906,44.68553669877906 0 0,0 0.4440622660155071,0.6280945834252717 l -19.457113050430866 13.506494750747235" fill="#ffc612" stroke="none" /><path d="M 117.2510076193507 88.02491185347247 l 32.39864728811337 -22.490086704744936 a60.43952771125081,60.43952771125081 0 0,0 0.5859051975498705,0.8597435805003757 l -32.78097695133197 21.929065100974153" fill="#5dff2a" stroke="none" /><path d="M 117.45458315368197 88.32363383020206 l 32.769244784590086 -21.921216785512406 a60.425412478626214,60.425412478626214 0 0,0 0.570885959316413,0.8694984822732803 l -33.141727379264424 21.353900239261453" fill="#5dff2a" stroke="none" /><path d="M 117.65298651832404 88.62581576622439 l 19.90918858104551 -12.82790187545514 a44.68397889886618,44.68397889886618 0 0,0 0.4110338863423321,0.6501568981922541 l -20.1270500636338 12.48329732954868" fill="#ffc612" stroke="none" /><line stroke="#e1ed5e" stroke-width="0.3" x1="172.23445277983987" x2="176.4835382374775" y1="55.19839476539836" y2="52.563006222186495" /><path d="M 173.08426987136738 54.67131705675599 a86.0,86.0 0 0,1 12.851231095245387,41.99856678651699" fill="none" id="id87" stroke="none" /><text fill="#e1ed5e" style="font-size:6.75px; font-family:Arial;" text-anchor="middle"><textPath startOffset="22.20632615414155" xlink:href="#id87">March</textPath></text><path d="M 117.84615892207809 88.93136811851018 l 20.187447320088904 -12.520757211043206 a44.75504978818725,44.75504978818725 0 0,0 0.40041746676732687,0.6581810326816098 l -20.399980585142455 12.171408405154514" fill="#ffc712" stroke="none" /><path d="M 118.03404312379186 89.2402003453031 l 20.286626733324006 -12.103777163103993 a44.623053270720405,44.623053270720405 0 0,0 0.38788127000786804,0.6630148240044579 l -20.4919676778022 11.75278292674564" fill="#ffc512" stroke="none" /><path d="M 118.3937258080291 89.86733742301442 l 20.714629474883093 -11.411192765777173 a44.64976098440364,44.64976098440364 0 0,0 0.3650477301358805,0.6763780027999636 l -20.90798530423744 11.05293377964475" fill="#ffc512" stroke="none" /><path d="M 118.56541770881063 90.18545643968196 l 34.899175033801264 -18.449327613342966 a60.47569008167377,60.47569008167377 0 0,0 0.478594724509833,0.9244926741117521 l -35.211579191471216 17.84586221697087" fill="#5dff2a" stroke="none" /><path d="M 118.73160827565052 90.50648371742162 l 35.31209975938611 -17.89680785037249 a60.58838365796197,60.58838365796197 0 0,0 0.4634722459994738,0.9343317664751384 l -35.61493201833898 17.2863164953984" fill="#5bff2a" stroke="none" /><path d="M 119.04729006885535 91.15688171328212 l 21.529896143005722 -9.995722100366597 a44.737120470612474,44.737120470612474 0 0,0 0.31826772114481544,0.7012607355574688 l -21.698766181113882 9.623639355967066" fill="#ffc712" stroke="none" /><path d="M 119.196687751892 91.48605970444005 l 21.594965365547203 -9.577602562652133 a44.623568739445446,44.623568739445446 0 0,0 0.3053724470396213,0.7048417105939326 l -21.75662852242951 9.2044617074716" fill="#ffc512" stroke="none" /><path d="M 119.34039704204932 91.81776055985345 l 21.745877756846635 -9.199913437962309 a44.61189544872916,44.61189544872916 0 0,0 0.29311781327737985,0.7098080347475696 l -21.901017257010214 8.824230832761435" fill="#ffc512" stroke="none" /><path d="M 119.47837535516314 92.15188598940014 l 21.888677511345534 -8.819258974016936 a44.59859173862843,44.59859173862843 0 0,0 0.28077245209711366,0.7145352652718183 l -22.03724351332435 8.441174703849333" fill="#ffc512" stroke="none" /><path d="M 119.61058180528143 92.48833698450437 l 36.688160566843 -14.053081217728053 a60.28753259611139,60.28753259611139 0 0,0 0.3628603567003419,0.9722853531377534 l -36.92462551204497 13.419472727560967" fill="#5fff29" stroke="none" /><path d="M 119.7369772167798 92.82701384747503 l 36.97821594780396 -13.438949035882395 a60.34455242942112,60.34455242942112 0 0,0 0.34639761358464943,0.9793127000081105 l -37.20406664219842 12.80043870944767" fill="#5eff29" stroke="none" /><path d="M 119.97218684219823 93.5106431181261 l 22.476488819048598 -7.303053919467587 a44.63317892674338,44.63317892674338 0 0,0 0.2311244500131335,0.732727666993078 l -22.598868752829937 6.9150760860480895" fill="#ffc512" stroke="none" /><path d="M 120.08093135843002 93.85539295169968 l 22.524735235196395 -6.892391812752412 a44.55565244938451,44.55565244938451 0 0,0 0.21809801533986978,0.7353180853948413 l -22.640039147647965 6.503644340611041" fill="#ffc412" stroke="none" /><path d="M 120.18372546131832 94.20196356495316 l 22.66630713087231 -6.511190158854646 a44.582982768000285,44.582982768000285 0 0,0 0.20553440664544248,0.7394166170458165 l -22.775028308084114 6.1200622383898775" fill="#ffc412" stroke="none" /><path d="M 120.37134235888165 94.90015583598534 l 38.21987170272334 -9.568117123491447 a60.399333221026495,60.399333221026495 0 0,0 0.24380392110762272,1.01072465199016 l -38.378908424091776 8.908807239841881" fill="#5eff2a" stroke="none" /><path d="M 120.45610955862082 95.25157060432595 l 53.61370401492955 -12.445225101376687 a76.03919408952505,76.03919408952505 0 0,0 0.28498625631843383,1.277537506886276 l -53.81998465825002 11.520509424940446" fill="#41ffcf" stroke="none" /><path d="M 120.6074358757038 95.95851677861258 l 23.0822016984187 -4.5268286379492935 a44.5219092074568,44.5219092074568 0 0,0 0.1410163124326171,0.7533147797443228 l -23.156703734761177 4.128835780742407" fill="#ffc312" stroke="none" /><path d="M 120.67395015179393 96.31383870115 l 23.158760875784793 -4.129202568587587 a44.52399879174905,44.52399879174905 0 0,0 0.12803435260521737,0.7556659966851346 l -23.226407089910236 3.729950783586615" fill="#ffc312" stroke="none" /><path d="M 120.73433829027371 96.67025291283417 l 23.30600140917983 -3.7427329109461946 a44.60461292475206,44.60461292475206 0 0,0 0.11521606555185868,0.7591299167006662 l -23.36697336817099 3.341003881853446" fill="#ffc512" stroke="none" /><path d="M 120.78858239683441 97.02765380044208 l 23.311352469278543 -3.333051219941101 a44.548426367417626,44.548426367417626 0 0,0 0.10200317025822972,0.760042097968029 l -23.36527163859461 2.9312907799084074" fill="#ffc412" stroke="none" /><path d="M 120.83666639777658 97.38593545837742 l 62.453831335014385 -7.835147084696761 a83.94339185539064,83.94339185539064 0 0,0 0.1675256152543253,1.435257165329932 l -62.5794473032723 6.758946181041976" fill="#4dd3ff" stroke="none" /><path d="M 120.87857604477298 97.74499172005257 l 46.75925198782746 -5.050272593810202 a68.03119071140914,68.03119071140914 0 0,0 0.1157271274034286,1.1653563797241442 l -46.83925624091312 4.244640683381623" fill="#35ff65" stroke="none" /><path d="M 120.94382443527127 98.46500227214037 l 23.655584141647527 -1.733745812320214 a44.719033193288126,44.719033193288126 0 0,0 0.049658163091495455,0.7681898038022065 l -23.68192289574344 1.3262969442649724" fill="#ffc612" stroke="none" /><path d="M 120.98425023603335 99.18683210126433 l 23.58586322482123 -0.9139838985269462 a44.60356563374994,44.60356563374994 0 0,0 0.02312653576133137,0.7674571330839163 l -23.598101455038208 0.5078566180180307" fill="#ffc512" stroke="none" /><line stroke="#e1ed5e" stroke-width="0.3" x1="184.98032266829074" x2="189.97916517819016" y1="98.17113171792111" y2="98.06355123074" /><path d="M 185.9800911702706 98.14961562048488 a86.0,86.0 0 0,1 -9.607161424134198,41.387399972396054" fill="none" id="id88" stroke="none" /><text fill="#e1ed5e" style="font-size:6.75px; font-family:Arial;" text-anchor="middle"><textPath startOffset="21.466115282336823" xlink:href="#id88">April</textPath></text><path d="M 120.99513854157772 99.54816195383933 l 23.631859664275293 -0.5085831311235938 a44.63733165975519,44.63733165975519 0 0,0 0.009920100435249893,0.768322711044347 l -23.63711277182826 0.10172416201878404" fill="#ffc512" stroke="none" /><path d="M 120.99980553446 99.90962569577887 l 39.47266784514079 -0.1698737108018703 a60.47303337584323,60.47303337584323 0 0,0 -0.004479907711179717,1.0409727804590265 l -39.46974364014011 -0.509608547860841" fill="#5dff2a" stroke="none" /><path d="M 120.99824983174949 100.27111621757518 l 62.994749495248485 0.8133486527255557 a84.0,84.0 0 0,0 -0.03111174925997018,1.4456407368395405 l -62.97141568330351 -1.8975792053552112" fill="#4dd2ff" stroke="none" /><path d="M 120.9764740272857 100.99374915477107 l 47.22878993036618 2.2374384757472328 a68.28175894802786,68.28175894802786 0 0,0 -0.06572492934084484,1.1735627648909546 l -47.18327865013781 -3.0500729569736102" fill="#35ff69" stroke="none" /><path d="M 120.95626037817324 101.35467743843564 l 23.607600821495698 1.5260682789465652 a44.65687428505912,44.65687428505912 0 0,0 -0.05618991894787176,0.7666668009452571 l -23.577834343883488 -1.9322082163885925" fill="#ffc512" stroke="none" /><path d="M 120.92983693683757 101.71520430193887 l 39.34634604307372 3.2244408880164244 a60.4782467440186,60.4782467440186 0 0,0 -0.09395843887991717,1.0368235436094528 l -39.285013007916724 -3.9012458201744478" fill="#5dff2a" stroke="none" /><path d="M 120.89721153311464 102.0752229133903 l 39.213088719975346 3.894103291606523 a60.405968677427005,60.405968677427005 0 0,0 -0.11165812760272692,1.0338155867990166 l -39.14024829087156 -4.568515200290331" fill="#5eff2a" stroke="none" /><path d="M 120.8583938346157 102.4346265915055 l 46.63863821136327 5.443739804766323 a67.95526463850919,67.95526463850919 0 0,0 -0.14561354035542592,1.1606831870730885 l -46.538023161761 -6.245740746126806" fill="#35ff64" stroke="none" /><path d="M 120.81339534386255 102.79330883721812 l 46.54798243308001 6.247077352678886 a67.96531320070886,67.96531320070886 0 0,0 -0.16559570227943718,1.158175956054444 l -46.433552679783965 -7.047398780713739" fill="#35ff65" stroke="none" /><path d="M 120.70491114924044 103.5080841355445 l 38.70918901962038 6.558593317339845 a60.26087697516389,60.26087697516389 0 0,0 -0.18208414437307702,1.0212245799920554 l -38.59055843290812 -7.223936648065119" fill="#5fff29" stroke="none" /><path d="M 120.64145759157962 103.86396538481128 l 38.798951436290395 7.262946652466866 a60.472889767943265,60.472889767943265 0 0,0 -0.20033823782433755,1.0215203585576762 l -38.66818326549039 -7.929730738092487" fill="#5dff2a" stroke="none" /><path d="M 120.5718875245553 104.21870165774334 l 38.57055339247766 7.909709662893021 a60.37322816271525,60.37322816271525 0 0,0 -0.21753325448763686,1.016242944416876 l -38.42868609926558 -8.572466426726066" fill="#5eff2a" stroke="none" /><path d="M 120.49622156327973 104.57218783832717 l 38.54250281484516 8.59785605286592 a60.48984238938097,60.48984238938097 0 0,0 -0.23544788018371696,1.0143033055879245 l -38.388794368730885 -9.260028015802408" fill="#5dff2a" stroke="none" /><path d="M 120.41448212921028 104.9243191809786 l 38.27184968278252 9.231818974961492 a60.36954355498626,60.36954355498626 0 0,0 -0.25236966120472965,1.0080913463342878 l -38.107268707282735 -9.889238160693177" fill="#5eff2a" stroke="none" /><path d="M 120.32669344350535 105.2749913415812 l 45.866744683565756 11.902904018539738 a68.38604638437329,68.38604638437329 0 0,0 -0.30549650298564324,1.1368661350982014 l -45.65506010423833 -12.690661086813488" fill="#36ff6a" stroke="none" /><path d="M 120.13307415673323 105.97154293290107 l 37.825724299644605 11.219247237902092 a60.45449185299309,60.45449185299309 0 0,0 -0.3044984152282279,0.9951184391262438 l -37.626999111910244 -11.868692649580394" fill="#5dff2a" stroke="none" /><path d="M 120.02730092923936 106.31721596034902 l 37.57398165930625 11.85196934278282 a60.398899414021024,60.398899414021024 0 0,0 -0.32128690926840037,0.9888194313652823 l -37.3644024990216 -12.496987674125897" fill="#5eff2a" stroke="none" /><path d="M 119.9155931802556 106.66101706037122 l 37.36419881983791 12.49691955109762 a60.39868464447744,60.39868464447744 0 0,0 -0.3382590053885161,0.9831390051896907 l -37.143548983506165 -13.13823125937661" fill="#5eff2a" stroke="none" /><path d="M 119.67450827220406 107.3425965602758 l 38.30883171224097 14.296992436445443 a61.889736852718656,61.889736852718656 0 0,0 -0.38108080997662286,0.9948817436369568 l -38.05705662267084 -14.954297746915543" fill="#4bff2c" stroke="none" /><path d="M 119.26925614724726 108.34839909993367 l 36.22965977786542 15.696488581041724 a60.48376883473325,60.48376883473325 0 0,0 -0.4221159786563308,0.9517600965061588 l -35.95410271447781 -16.31779701404057" fill="#5dff2a" stroke="none" /><path d="M 119.12269723197855 108.67885076344098 l 35.95684543545328 16.319041800052872 a60.486780812582715,60.486780812582715 0 0,0 -0.4384582564438353,0.9444000773023685 l -35.670612562169616 -16.93556194463407" fill="#5dff2a" stroke="none" /><path d="M 118.81262510543309 109.33194174019688 l 35.29214646095973 17.506554923324174 a60.39562243581383,60.39562243581383 0 0,0 -0.46999680750223566,0.9273482898105919 l -34.985570983671224 -18.11145742483746" fill="#5eff2a" stroke="none" /><path d="M 118.64920377521936 109.65438752849418 l 41.55326691274576 21.511446101718835 a67.7911990069612,67.7911990069612 0 0,0 -0.5453882398406292,1.0316690148539314 l -41.176826164680236 -22.2235301316589" fill="#35ff62" stroke="none" /><line stroke="#e1ed5e" stroke-width="0.3" x1="174.80103733775053" x2="179.2010983576182" y1="140.37084112569926" y2="142.7455964860345" /><path d="M 175.68104954172406 140.8457921977663 a86.0,86.0 0 0,1 -30.038265399797805,32.042727171017184" fill="none" id="id89" stroke="none" /><text fill="#e1ed5e" style="font-size:6.75px; font-family:Arial;" text-anchor="middle"><textPath startOffset="22.206326154141568" xlink:href="#id89">May</textPath></text><path d="M 118.48025628344425 109.97397251340804 l 41.54175358900814 22.42048498140825 a68.20588351097163,68.20588351097163 0 0,0 -0.5665102427864643,1.0283806446808879 l -41.14966693677016 -23.132236144486946" fill="#35ff68" stroke="none" /><path d="M 118.30583269289576 110.29060199501025 l 41.12979477446942 23.121065032172748 a68.1830866562578,68.1830866562578 0 0,0 -0.5839329538712996,1.0181363249297704 l -40.72570982444574 -23.825621202960836" fill="#35ff68" stroke="none" /><path d="M 117.94076556474637 110.91462005526583 l 46.95409506281909 28.56545367587542 a75.96064216215852,75.96064216215852 0 0,0 -0.6891994440676097,1.1112089497173705 l -46.455430979083516 -29.369458956958066" fill="#41ffce" stroke="none" /><path d="M 117.14729908036423 112.12312394758627 l 45.07222690387814 31.866021044396486 a76.19917513221186,76.19917513221186 0 0,0 -0.7664193139158854,1.064489394101658 l -44.51702779758665 -32.63714404394928" fill="#41ffd1" stroke="none" /><path d="M 116.71984013943494 112.70617746262583 l 31.340336971219706 23.81696714644958 a60.36323977424444,60.36323977424444 0 0,0 -0.6358065299378101,0.8218656475273647 l -30.925723624063828 -24.3529107880902" fill="#5eff2a" stroke="none" /><path d="M 115.80600337817218 113.82643327865902 l 35.56404995476726 31.1099493055625 a68.25072057630285,68.25072057630285 0 0,0 -0.7811169855065931,0.8775932137809669 l -35.02327411961233 -31.71751668908433" fill="#35ff69" stroke="none" /><path d="M 115.56566222782051 114.09645910891815 l 29.336314166611285 26.56733436736765 a60.57830951758339,60.57830951758339 0 0,0 -0.7066130720894759,0.7668889319764716 l -28.87465468652609 -27.068374554145453" fill="#5bff2a" stroke="none" /><path d="M 115.07121518719521 114.62390073753431 l 28.252668141209384 27.414127483135967 a60.366834299432035,60.366834299432035 0 0,0 -0.7300344526695149,0.7395210462772835 l -27.776593063484334 -27.896389023393915" fill="#5eff2a" stroke="none" /><path d="M 114.81725581225074 114.88116024355365 l 27.687980811207915 27.807394600784477 a60.24124712449332,60.24124712449332 0 0,0 -0.7411109077883047,0.7253330064401925 l -27.205219951043816 -28.279877710147243" fill="#60ff29" stroke="none" /><path d="M 114.55890576462653 115.13401014063108 l 27.25626608204371 28.33294026008622 a60.31487688543334,60.31487688543334 0 0,0 -0.7544074671873101,0.7133393479655085 l -26.76452278046559 -28.79791424479765" fill="#5fff29" stroke="none" /><path d="M 113.48314897796784 116.09983520530334 l 25.20686209343055 30.098779328937223 a60.25967923569021,60.25967923569021 0 0,0 -0.8009655485236359,0.6591401169780369 l -24.685026416362224 -30.528214564772437" fill="#5fff29" stroke="none" /><path d="M 113.20401910651253 116.32954008644616 l 25.005213819792672 30.924193470688575 a60.76891323617139,60.76891323617139 0 0,0 -0.8190564555813191,0.6507079842657121 l -24.469199871494002 -31.350035368959414" fill="#59ff2a" stroke="none" /><path d="M 112.92097659922987 116.55440617244103 l 7.211657781639259 9.239604388805795 a32.72084882681785,32.72084882681785 0 0,0 -0.44698435751054333,0.34272854494828264 l -7.051544695635221 -9.362372275581448" fill="#ff0000" stroke="none" /><line stroke="#e1ed5e" stroke-width="0.3" x1="143.8653032363475" x2="146.44561519142675" y1="172.8068346515853" y2="177.08958963109032" /><path d="M 144.38136562736335 173.6633856474863 a86.0,86.0 0 0,1 -40.68145358897372,12.25698825130547" fill="none" id="id90" stroke="none" /><text fill="#e1ed5e" style="font-size:6.75px; font-family:Arial;" text-anchor="middle"><textPath startOffset="21.466115282336833" xlink:href="#id90">June</textPath></text><path d="M 110.8373102113329 117.98757091392108 l 20.1722484327022 33.48153204999345 a60.088778380059345,60.088778380059345 0 0,0 -0.8905504010728379,0.5261528741737995 l -19.59293016060098 -33.823803496461" fill="#62ff29" stroke="none" /><path d="M 109.57404056367764 118.69057910512821 l 17.955469393988203 35.05292450412735 a60.38408812516165,60.38408812516165 0 0,0 -0.9291848626564672,0.4659125796972816 l -17.349430623648974 -35.356804924733936" fill="#5eff2a" stroke="none" /><line stroke="#e1ed5e" stroke-width="0.3" x1="102.19456741930631" x2="102.32365962044197" y1="184.97166512339345" y2="189.96999836594603" /><path d="M 102.22038585953345 185.97133177190398 a86.0,86.0 0 0,1 -42.740103519485714,-10.115201625700543" fill="none" id="id91" stroke="none" /><text fill="#e1ed5e" style="font-size:6.75px; font-family:Arial;" text-anchor="middle"><textPath startOffset="22.20632615414155" xlink:href="#id91">July</textPath></text><line stroke="#e1ed5e" stroke-width="0.3" x1="58.666819895761336" x2="56.23545636021788" y1="174.27360380694188" y2="178.64263932499728" /><path d="M 58.180547188652646 175.14741091055294 a86.0,86.0 0 0,1 -31.652253787137756,-30.449443065178592" fill="none" id="id92" stroke="none" /><text fill="#e1ed5e" style="font-size:6.75px; font-family:Arial;" text-anchor="middle"><textPath startOffset="22.20632615414155" xlink:href="#id92">August</textPath></text><line stroke="#e1ed5e" stroke-width="0.3" x1="26.63291911575756" x2="22.317208475507996" y1="142.92168965132927" y2="145.44649492493687" /><path d="M 25.769776987707644 143.4266507060508 a86.0,86.0 0 0,1 -11.730757126820373,-40.83630448921669" fill="none" id="id93" stroke="none" /><text fill="#e1ed5e" style="font-size:6.75px; font-family:Arial;" text-anchor="middle"><textPath startOffset="21.46611528233685" xlink:href="#id93">September</textPath></text><line stroke="#e1ed5e" stroke-width="0.3" x1="15.007084014347285" x2="10.007500721073583" y1="101.09737516637583" y2="101.16192664675087" /><path d="M 14.007167355692545 101.11028546245083 a86.0,86.0 0 0,1 10.666146001902534,-42.60595125391555" fill="none" id="id94" stroke="none" /><text fill="#e1ed5e" style="font-size:6.75px; font-family:Arial;" text-anchor="middle"><textPath startOffset="22.20632615414155" xlink:href="#id94">October</textPath></text><line stroke="#e1ed5e" stroke-width="0.3" x1="26.266209847984243" x2="21.928928074336255" y1="57.711370442889674" y2="55.22380399835377" /><path d="M 25.398753493254645 57.213857153982495 a86.0,86.0 0 0,1 29.58750427330803,-30.492523968695096" fill="none" id="id95" stroke="none" /><text fill="#e1ed5e" style="font-size:6.75px; font-family:Arial;" text-anchor="middle"><textPath startOffset="21.46611528233685" xlink:href="#id95">November</textPath></text><line stroke="#e1ed5e" stroke-width="0.3" x1="56.762969772571076" x2="54.21961505331055" y1="26.818313649435495" y2="22.513508569990535" /><path d="M 56.25429882871897 25.957352633546506 a86.0,86.0 0 0,1 42.265352541879196,-11.944610805530505" fill="none" id="id96" stroke="none" /><text fill="#e1ed5e" style="font-size:6.75px; font-family:Arial;" text-anchor="middle"><textPath startOffset="22.20632615414155" xlink:href="#id96">December</textPath></text></svg>