<?xml version="1.0" encoding="utf-8" ?>
<svg baseProfile="full" height="200mm" version="1.1" viewBox="0,0,200,200" width="200mm" xmlns="http://www.w3.org/2000/svg" xmlns:ev="http://www.w3.org/2001/xml-events" xmlns:xlink="http://www.w3.org/1999/xlink"><defs /><rect fill="#1a1a1a" height="200" width="200" x="0" y="0" /><text alignment-baseline="middle" fill="#e1ed5e" style="dominant-baseline: central; font-size:9.0px; font-family:Arial;" text-anchor="middle" x="100.0" y="100.0">2022</text><line stroke="#e1ed5e" stroke-width="0.3" x1="100.0" x2="100.0" y1="15.0" y2="10.0" /><path d="M 100.0 14.0 a86.0,86.0 0 0,1 42.46469731375804,11.215312516191453" fill="none" id="id85" stroke="none" /><text fill="#e1ed5e" style="font-size:6.75px; font-family:Arial;" text-anchor="middle"><textPath startOffset="22.20632615414155" xlink:href="#id85">January</textPath></text><path d="M 100.0 79.0 l 0.0 -22.667438229229504 a43.667438229229504,43.667438229229504 0 0,0 0.7516631666526385,0.00646980218391019 l -0.39018268738011014 22.664079803654154" fill="#ffa10e" stroke="none" /><path d="M 100.36148047927253 79.00311137660856 l 0.3875820276613737 -22.513018361632323 a43.51635440250842,43.51635440250842 0 0,0 0.7488405435470046,0.019340341945016864 l -0.775049206403246 22.50301122754495" fill="#ff9e0e" stroke="none" /><path d="M 102.16513564639614 79.11191278185805 l 1.3903107088369087 -13.412984722153887 a34.484847905105944,34.484847905105944 0 0,0 0.5899097900912835,0.0662832383524262 l -1.6209872024379175 13.38706553033086" fill="#ff0100" stroke="none" /><path d="M 102.52436894288641 79.15227682838746 l 2.7058850140611024 -22.346789626899334 a43.510016000398934,43.510016000398934 0 0,0 0.7427476142157605,0.09642995732446707 l -3.0901473567847093 22.296901346410728" fill="#ff9e0e" stroke="none" /><path d="M 102.88285421437855 79.19881850522331 l 3.1255205288278574 -22.55213581787501 a43.767690012910954,43.767690012910954 0 0,0 0.7453658858857087,0.1098475561530133 l -3.513255395142222 22.494993777561024" fill="#ffa20f" stroke="none" /><path d="M 103.2404852339499 79.25152402106235 l 2.079591294330386 -13.315397818933222 a34.476814127526815,34.476814127526815 0 0,0 0.5855653649841635,0.0966233025400427 l -2.308485865453425 13.277628253453555" fill="#ff0100" stroke="none" /><path d="M 103.59715602781102 79.31037775812273 l 2.315572366715307 -13.318387406793407 a34.518184734013985,34.518184734013985 0 0,0 0.5845159477184162,0.10681655331362783 l -2.5444834355366237 13.276555372129042" fill="#ff0200" stroke="none" /><path d="M 103.95276090670814 79.375362276772 l 2.5387088175023216 -13.246424684298825 a34.487505676620316,34.487505676620316 0 0,0 0.5820728793089255,0.11675834373202501 l -2.766348106278372 13.200762384489591" fill="#ff0200" stroke="none" /><path d="M 104.307194497241 79.44645832069477 l 2.770828832198918 -13.222144002389706 a34.50935174008268,34.50935174008268 0 0,0 0.5803442215121576,0.12684076875219832 l -2.998015777864604 13.172489735541637" fill="#ff0200" stroke="none" /><path d="M 104.66035177308747 79.52364482259891 l 2.9950233878853894 -13.159341964079937 a34.495867738740465,34.495867738740465 0 0,0 0.5778490080077405,0.1367581906427654 l -3.2210960828556536 13.105837861296303" fill="#ff0200" stroke="none" /><path d="M 105.01212808612495 79.60689891045804 l 5.926189932985969 -24.11219112970528 a45.82977020025079,45.82977020025079 0 0,0 0.764464815940751,0.19487910310246195 l -6.340363637611746 24.00660903043395" fill="#ffc412" stroke="none" /><path d="M 105.36241919743992 79.69619591428918 l 3.4429867156406866 -13.036229576652117 a34.48322806672266,34.48322806672266 0 0,0 0.5725892577736366,0.156510273834056 l -3.666873862638034 12.975032761991766" fill="#ff0100" stroke="none" /><path d="M 105.71112130821622 79.79150937346287 l 3.685740497042392 -13.041791316737623 a34.552601365083795,34.552601365083795 0 0,0 0.5709566988946163,0.16667791707089882 l -3.9096874136604356 12.97641507074802" fill="#ff0300" stroke="none" /><path d="M 106.0581310904928 79.89281104454417 l 3.882986497857079 -12.887793621109145 a34.46004489453293,34.46004489453293 0 0,0 0.5664815026018144,0.17600856034904225 l -4.104253373169612 12.819044925877582" fill="#ff0100" stroke="none" /><path d="M 106.40334571778207 80.00007090966166 l 4.107218848044031 -12.828307160000419 a34.46977027484308,34.46977027484308 0 0,0 0.563526868986254,0.18578594871662724 l -4.327428539272702 12.755707487024557" fill="#ff0100" stroke="none" /><path d="M 107.4271985657038 80.35727306442388 l 7.938746398149024 -20.995618513513232 a43.446373674585026,43.446373674585026 0 0,0 0.6972456832404967,0.2705204927356984 l -8.298975246389187 20.855855316886988" fill="#ff9d0e" stroke="none" /><path d="M 107.76421540070413 80.48803036053334 l 9.957145002098162 -25.02294191362684 a47.931252451483786,47.931252451483786 0 0,0 0.7639696831591795,0.31164241589698755 l -10.38639855484573 24.847838611546276" fill="#ffe515" stroke="none" /><path d="M 108.43124777332544 80.76684994638697 l 5.402938660973855 -12.325047583792106 a34.45728591198781,34.45728591198781 0 0,0 0.5411728115655371,0.24280846574063525 l -5.614293591006172 12.23021878753494" fill="#ff0100" stroke="none" /><line stroke="#e1ed5e" stroke-width="0.3" x1="143.23703022742887" x2="145.7803849466894" y1="26.81831364943548" y2="22.513508569990506" /><path d="M 143.74570117128098 25.957352633546492 a86.0,86.0 0 0,1 28.547481713284135,27.462654790039103" fill="none" id="id86" stroke="none" /><text fill="#e1ed5e" style="font-size:6.75px; font-family:Arial;" text-anchor="middle"><textPath startOffset="19.985693538727396" xlink:href="#id86">February</textPath></text><path d="M 112.19680574252982 82.90503203632743 l 7.864375219595381 -11.022659971085032 a34.54058456761547,34.54058456761547 0 0,0 0.48102646346081857,0.34948618280029936 l -8.052946999409988 10.885654553468058" fill="#ff0200" stroke="none" /><path d="M 112.48926042617603 83.11751280151076 l 8.006359630560851 -10.82267959487416 a34.4622504859767,34.4622504859767 0 0,0 0.4738622560937052,0.3569032270949516 l -8.19146804041294 10.68325977827336" fill="#ff0100" stroke="none" /><path d="M 112.77801427241765 83.33499621200491 l 8.175266975894909 -10.662130454435829 a34.43562488143242,34.43562488143242 0 0,0 0.4672872397119115,0.36472510258252483 l -8.35758677076625 10.519826962630079" fill="#ff0100" stroke="none" /><path d="M 113.06298171725822 83.55741782278167 l 8.396586144864532 -10.5689160930714 a34.498320127723844,34.498320127723844 0 0,0 0.4617790734827325,0.3733932295077039 l -8.577268616911756 10.422816766299565" fill="#ff0200" stroke="none" /><path d="M 113.34407831869373 83.78471172551755 l 8.67888017926013 -10.546291819139388 a34.65822947165557,34.65822947165557 0 0,0 0.45739367049574914,0.38305404510241314 l -8.859131386714996 10.395336616643155" fill="#ff0500" stroke="none" /><path d="M 113.89432698308785 84.25364557470407 l 14.87077206381951 -16.852953567287667 a43.475807120440166,43.475807120440166 0 0,0 0.5568816390854487,0.4999738340067208 l -15.158664690500949 16.594480724511648" fill="#ff9d0e" stroke="none" /><path d="M 114.68862486808459 84.99185889309783 l 9.379454956305075 -9.583482780332988 a34.40959796109841,34.40959796109841 0 0,0 0.41973843467947164,0.4179359444485227 l -9.543029191151868 9.420610985234347" fill="#ff0000" stroke="none" /><path d="M 114.94478906791727 85.2469230424477 l 9.591714533133402 -9.46867179048855 a34.478009243249396,34.478009243249396 0 0,0 0.41330224013811423,0.4259442887549048 l -9.753281036974625 9.30216330618353" fill="#ff0100" stroke="none" /><path d="M 115.19652480421416 85.50635884689758 l 9.75338962537329 -9.302266872051643 a34.47815930100282,34.47815930100282 0 0,0 0.4059108408340914,0.43299738368689483 l -9.912067788177845 9.133000071486693" fill="#ff0100" stroke="none" /><path d="M 115.4437574822437 85.77008943001954 l 9.91991317016228 -9.140228822919381 a34.48882723734296,34.48882723734296 0 0,0 0.398520631277912,0.4400564346946717 l -10.075777442056228 8.968119600955161" fill="#ff0200" stroke="none" /><path d="M 115.68641384162765 86.03803664274999 l 16.78632591333666 -14.940959079053856 a43.47249420671234,43.47249420671234 0 0,0 0.4927051110363045,0.5632471146049477 l -17.041022887950813 14.64979640824596" fill="#ff9d0e" stroke="none" /><path d="M 115.9244219780498 86.31012108654704 l 17.14640288279998 -14.740389295785233 a43.61146188132451,43.61146188132451 0 0,0 0.48448053272496033,0.5734721377199585 l -17.397594029012055 14.443058208436167" fill="#ffa00e" stroke="none" /><path d="M 116.15771136456269 86.58626213691792 l 10.36982114873044 -8.60877258156662 a34.47754265501654,34.47754265501654 0 0,0 0.3751509755319626,0.4598907376515277 l -10.516470616338811 8.428997674306993" fill="#ff0100" stroke="none" /><path d="M 116.60985879189232 87.15038557335679 l 10.671480949848908 -8.255603932873921 a34.49205328923183,34.49205328923183 0 0,0 0.35924961549652407,0.4727303832268378 l -10.812006505569546 8.070688773766049" fill="#ff0200" stroke="none" /><path d="M 116.82858285166822 87.43820079747576 l 10.749268456344074 -8.023857570944338 a34.41376392610793,34.41376392610793 0 0,0 0.35026228548281513,0.4777573637658862 l -10.885793354340516 7.837637763506958" fill="#ff0000" stroke="none" /><path d="M 117.04232023915458 87.72973835380427 l 10.96987320372135 -7.898174224305605 a34.51736935143851,34.51736935143851 0 0,0 0.3430161610101642,0.48517203384781943 l -11.104201984535397 7.708175690125993" fill="#ff0200" stroke="none" /><path d="M 117.2510076193507 88.02491185347247 l 18.489953909424614 -12.835124346140942 a43.508194342362216,43.508194342362216 0 0,0 0.4217716148111895,0.6188978008517029 l -18.708149989904538 12.514948522018834" fill="#ff9e0e" stroke="none" /><path d="M 117.45458315368197 88.32363383020206 l 18.701454425722922 -12.510469477265397 a43.500138759105035,43.500138759105035 0 0,0 0.41097970915255144,0.6259502927364848 l -18.9140307702334 12.18670112055124" fill="#ff9e0e" stroke="none" /><path d="M 117.65298651832404 88.62581576622439 l 11.362202130353529 -7.320901774772799 a34.51648031282115,34.51648031282115 0 0,0 0.3175062605312766,0.5022186548670855 l -11.486535987130761 7.124235472191508" fill="#ff0200" stroke="none" /><line stroke="#e1ed5e" stroke-width="0.3" x1="172.23445277983987" x2="176.4835382374775" y1="55.19839476539836" y2="52.563006222186495" /><path d="M 173.08426987136738 54.67131705675599 a86.0,86.0 0 0,1 12.851231095245387,41.99856678651699" fill="none" id="id87" stroke="none" /><text fill="#e1ed5e" style="font-size:6.75px; font-family:Arial;" text-anchor="middle"><textPath startOffset="22.20632615414155" xlink:href="#id87">March</textPath></text><path d="M 117.84615892207809 88.93136811851018 l 11.52100478695996 -7.145613879633244 a34.55704057004926,34.55704057004926 0 0,0 0.30917723719496565,0.5082060852676924 l -11.642297822441149 6.94624002115847" fill="#ff0300" stroke="none" /><path d="M 118.03404312379186 89.2402003453031 l 11.577606618609686 -6.9076427755009275 a34.4817099705195,34.4817099705195 0 0,0 0.2997286934684948,0.5123334956211448 l -11.694794986548509 6.707329867525888" fill="#ff0100" stroke="none" /><path d="M 118.3937258080291 89.86733742301442 l 11.82186838960771 -6.512383878699461 a34.49695210055776,34.49695210055776 0 0,0 0.28204034653877785,0.5225779276312719 l -11.932216835364953 6.30792496773573" fill="#ff0200" stroke="none" /><path d="M 118.56541770881063 90.18545643968196 l 19.917008636612856 -10.52905740776842 a43.52883225839711,43.52883225839711 0 0,0 0.34448006223339184,0.6654258344333005 l -20.095298132006366 10.184658851074774" fill="#ff9e0e" stroke="none" /><path d="M 118.73160827565052 90.50648371742162 l 20.152665362531987 -10.213733596236374 a43.593146642047984,43.593146642047984 0 0,0 0.3334667862808937,0.6722486927231639 l -20.325492161766288 9.86532531501426" fill="#ff9f0e" stroke="none" /><path d="M 119.04729006885535 91.15688171328212 l 12.287142232167428 -5.704572764524138 a34.54680828310724,34.54680828310724 0 0,0 0.2457720530384607,0.5415261405500775 l -12.383516602169236 5.492224615131998" fill="#ff0300" stroke="none" /><path d="M 119.196687751892 91.48605970444005 l 12.324277329661317 -5.465951351962673 a34.482004149251196,34.482004149251196 0 0,0 0.235970682832887,0.5446528701273778 l -12.416538722336885 5.252999337248692" fill="#ff0100" stroke="none" /><path d="M 119.34039704204932 91.81776055985345 l 12.410403245187158 -5.250403633395795 a34.475342185700804,34.475342185700804 0 0,0 0.22651664565733873,0.5485280245984114 l -12.498941577730696 5.0360010383440805" fill="#ff0100" stroke="none" /><path d="M 119.47837535516314 92.15188598940014 l 12.491899267397027 -5.033163591514512 a34.46774973949775,34.46774973949775 0 0,0 0.21699327793452106,0.5522242237550993 l -12.57668609521325 4.8173903628636285" fill="#ff0100" stroke="none" /><path d="M 119.61058180528143 92.48833698450437 l 20.93798521493763 -8.020113361230505 a43.42145051480691,43.42145051480691 0 0,0 0.2613462907464445,0.7002781259995641 l -21.0729360941857 7.658512098201608" fill="#ff9d0e" stroke="none" /><path d="M 119.7369772167798 92.82701384747503 l 21.103520231799777 -7.669627254954495 a43.45399181446193,43.45399181446193 0 0,0 0.24944023046424474,0.7052011215050994 l -21.232413543073832 7.305228507022781" fill="#ff9d0e" stroke="none" /><path d="M 119.97218684219823 93.5106431181261 l 12.827364013508687 -4.167863218738157 a34.48748869675775,34.48748869675775 0 0,0 0.17858691782754185,0.5661693327894279 l -12.897206415104435 3.94644371952231" fill="#ff0200" stroke="none" /><path d="M 120.08093135843002 93.85539295169968 l 12.854898311559305 -3.933497772613603 a34.44324422629026,34.44324422629026 0 0,0 0.168598209085907,0.5684293463783076 l -12.920702417756914 3.7116390394887655" fill="#ff0100" stroke="none" /><path d="M 120.18372546131832 94.20196356495316 l 12.935693592999273 -3.7159454486512344 a34.45884167784562,34.45884167784562 0 0,0 0.15886055930355417,0.5715059549366451 l -12.997740922869191 3.492728190295637" fill="#ff0100" stroke="none" /><path d="M 120.37134235888165 94.90015583598534 l 21.81213493029845 -5.4605379983947895 a43.485255289844034,43.485255289844034 0 0,0 0.1755296819458794,0.7276838530434345 l -21.902897412505148 5.084268913691949" fill="#ff9e0e" stroke="none" /><path d="M 120.45610955862082 95.25157060432595 l 30.597416840711162 -7.1025075976333785 a52.41094604590373,52.41094604590373 0 0,0 0.19643026839742797,0.8805583771206589 l -30.71514149611063 6.574771050962756" fill="#d6ff1c" stroke="none" /><path d="M 120.6074358757038 95.95851677861258 l 13.173045211933507 -2.5834675172458375 a34.42398691031501,34.42398691031501 0 0,0 0.10903269378457535,0.5824570100179381 l -13.215563629627942 2.3563324297653367" fill="#ff0000" stroke="none" /><path d="M 120.67395015179393 96.31383870115 l 13.216737642924658 -2.3565417561082422 a34.4251794390311,34.4251794390311 0 0,0 0.0989939287216848,0.5842677710403855 l -13.255343433166566 2.1286881967520186" fill="#ff0000" stroke="none" /><path d="M 120.73433829027371 96.67025291283417 l 13.300768023942208 -2.135982974945729 a34.47118603894926,34.47118603894926 0 0,0 0.08904088994145151,0.5866682136770539 l -13.33556480732296 1.9067156488765928" fill="#ff0100" stroke="none" /><path d="M 120.78858239683441 97.02765380044208 l 13.303821881521879 -1.9021770534559614 a34.43912029107392,34.43912029107392 0 0,0 0.07885574726301386,0.587566910272401 l -13.334593627842729 1.672891801118896" fill="#ff0100" stroke="none" /><path d="M 120.83666639777658 97.38593545837742 l 35.6424900268927 -4.471529541999033 a56.92188290947617,56.92188290947617 0 0,0 0.1135988580527234,0.9732456421422366 l -35.71417923794902 3.8573401615319436" fill="#96ff23" stroke="none" /><path d="M 120.87857604477298 97.74499172005257 l 26.68557135752093 -2.882197724466126 a47.84076717234922,47.84076717234922 0 0,0 0.08138141490302817,0.8194997419888577 l -26.73122989810619 2.422422451772833" fill="#ffe315" stroke="none" /><path d="M 120.94382443527127 98.46500227214037 l 13.500275384647045 -0.9894511914458829 a34.53648584831235,34.53648584831235 0 0,0 0.038350973274619594,0.5932725820158097 l -13.51530694892608 0.756919545177038" fill="#ff0200" stroke="none" /><path d="M 120.98425023603335 99.18683210126433 l 13.46048555863434 -0.5216119058131068 a34.47058834849056,34.47058834849056 0 0,0 0.017872680868192686,0.5931072669587447 l -13.467469933958178 0.2898344914293631" fill="#ff0100" stroke="none" /><line stroke="#e1ed5e" stroke-width="0.3" x1="184.98032266829074" x2="189.97916517819016" y1="98.17113171792111" y2="98.06355123074" /><path d="M 185.9800911702706 98.14961562048488 a86.0,86.0 0 0,1 -9.607161424134198,41.387399972396054" fill="none" id="id88" stroke="none" /><text fill="#e1ed5e" style="font-size:6.75px; font-family:Arial;" text-anchor="middle"><textPath startOffset="21.466115282336823" xlink:href="#id88">April</textPath></text><path d="M 120.99513854157772 99.54816195383933 l 13.486735791798097 -0.29024911348802485 a34.489858667371145,34.489858667371145 0 0,0 0.00766494880531513,0.5936587320416075 l -13.489733747721127 0.05805412338595467" fill="#ff0200" stroke="none" /><path d="M 120.99980553446 99.90962569577887 l 22.52710746372586 -0.0969471674301008 a43.52731607261562,43.52731607261562 0 0,0 -0.0032245506473727223,0.7492720094991886 l -22.525438615788982 -0.29083432027277256" fill="#ff9e0e" stroke="none" /><path d="M 120.99824983174949 100.27111621757518 l 35.95119278730605 0.4641792284551849 a56.954189257806604,56.954189257806604 0 0,0 -0.021094576851116265,0.9801820967232642 l -35.93787614776993 -1.082951140968564" fill="#96ff23" stroke="none" /><path d="M 120.9764740272857 100.99374915477107 l 26.9535373265647 1.2769093080907035 a47.98376681999022,47.98376681999022 0 0,0 -0.04618700121875697,0.8246999334333492 l -26.927563974458415 -1.740680957859476" fill="#ffe515" stroke="none" /><path d="M 120.95626037817324 101.35467743843564 l 13.472891235854078 0.8709293289139683 a34.5010116713199,34.5010116713199 0 0,0 -0.04341121228181536,0.5923115012166327 l -13.455903464907927 -1.1027139666273713" fill="#ff0200" stroke="none" /><path d="M 120.92983693683757 101.71520430193887 l 22.455015432314646 1.840192983148453 a43.53029134921956,43.53029134921956 0 0,0 -0.06762825378308682,0.7462721451248665 l -22.420012582254486 -2.22644651682189" fill="#ff9e0e" stroke="none" /><path d="M 120.89721153311464 102.0752229133903 l 22.378965289224684 2.222370265648708 a43.489042154212854,43.489042154212854 0 0,0 -0.08038783458810855,0.7442915099014978 l -22.33739515313552 -2.6072580974349973" fill="#ff9e0e" stroke="none" /><path d="M 120.8583938346157 102.4346265915055 l 26.616736904408356 3.106750019219422 a47.79743605497387,47.79743605497387 0 0,0 -0.10241964211162428,0.8163853192144127 l -26.559315753049884 -3.5644530927212297" fill="#ffe315" stroke="none" /><path d="M 120.81339534386255 102.79330883721812 l 26.56499952330183 3.5652158959741915 a47.80317078365792,47.80317078365792 0 0,0 -0.11647117131244449,0.8145991008869424 l -26.499694300972784 -4.021960468841543" fill="#ffe315" stroke="none" /><path d="M 120.70491114924044 103.5080841355445 l 22.091389016311762 3.742998498359088 a43.40623811416674,43.40623811416674 0 0,0 -0.13115620157219923,0.7355936307638596 l -22.023686372400373 -4.122710879856166" fill="#ff9c0e" stroke="none" /><path d="M 120.64145759157962 103.86396538481128 l 22.142616554679876 4.144973944637248 a43.52723411538365,43.52723411538365 0 0,0 -0.14419964737100952,0.7352708952920092 l -22.067986974333202 -4.5255085669972015" fill="#ff9e0e" stroke="none" /><path d="M 120.5718875245553 104.21870165774334 l 22.012269467483762 4.514082511015197 a43.470357096080406,43.470357096080406 0 0,0 -0.15662982650793575,0.7317224046908903 l -21.93130560225138 -4.892318735122257" fill="#ff9d0e" stroke="none" /><path d="M 120.49622156327973 104.57218783832717 l 21.99626096308709 4.906808630732052 a43.53690900045646,43.53690900045646 0 0,0 -0.16946106203953962,0.7300338200582897 l -21.908539335116995 -5.284711108138907" fill="#ff9e0e" stroke="none" /><path d="M 120.41448212921028 104.9243191809786 l 21.84179883716014 5.268612168564695 a43.46825428522915,43.46825428522915 0 0,0 -0.18171528159944553,0.7258622213249861 l -21.747872241265632 -5.643802229287076" fill="#ff9d0e" stroke="none" /><path d="M 120.32669344350535 105.2749913415812 l 26.17621617448283 6.79300418730293 a48.04328380766603,48.04328380766603 0 0,0 -0.2146206129930998,0.7986831417750753 l -26.055407485147953 -7.242578262253554" fill="#ffe615" stroke="none" /><path d="M 120.13307415673323 105.97154293290107 l 21.587194448937083 6.402840293994537 a43.51673439925559,43.51673439925559 0 0,0 -0.21918597368584108,0.7163124440208913 l -21.473781702745107 -6.773479710567486" fill="#ff9e0e" stroke="none" /><path d="M 120.02730092923936 106.31721596034902 l 21.44352456742939 6.763935695684689 a43.4850077155714,43.4850077155714 0 0,0 -0.23131487268798157,0.7119139755755957 l -21.32391744372516 -7.13204857123808" fill="#ff9e0e" stroke="none" /><path d="M 119.9155931802556 106.66101706037122 l 21.323801203726457 7.132009693329325 a43.48488514628859,43.48488514628859 0 0,0 -0.243534343265907,0.7078247974299077 l -21.197876029517317 -7.498007193848533" fill="#ff9e0e" stroke="none" /><path d="M 119.67450827220406 107.3425965602758 l 21.862904533767864 8.159313839323636 a44.33583075404057,44.33583075404057 0 0,0 -0.2729941207367416,0.7127015051161154 l -21.719216133437616 -8.534438911272895" fill="#ffab0f" stroke="none" /><path d="M 119.26925614724726 108.34839909993367 l 20.676318165068523 8.95800827183769 a43.533442814214055,43.533442814214055 0 0,0 -0.3038197217506845,0.6850332664836898 l -20.519057358586565 -9.312589874814067" fill="#ff9e0e" stroke="none" /><path d="M 119.12269723197855 108.67885076344098 l 20.520622633333126 9.313300275954887 a43.535161754240086,43.535161754240086 0 0,0 -0.315578889475196,0.6797288527135936 l -20.357269127018096 -9.665149195947311" fill="#ff9e0e" stroke="none" /><path d="M 118.81262510543309 109.33194174019688 l 20.141277986850405 9.991015697863228 a43.48313753946575,43.48313753946575 0 0,0 -0.3383843894555292,0.6676645029311047 l -19.966314927608607 -10.336234412497026" fill="#ff9e0e" stroke="none" /><path d="M 118.64920377521936 109.65438752849418 l 47.79482675688508 24.742599465900465 a74.81952891888442,74.81952891888442 0 0,0 -0.6019319879352667,1.138628477181153 l -47.36184226072492 -25.561642958167752" fill="#3fffbc" stroke="none" /><line stroke="#e1ed5e" stroke-width="0.3" x1="174.80103733775053" x2="179.2010983576182" y1="140.37084112569926" y2="142.7455964860345" /><path d="M 175.68104954172406 140.8457921977663 a86.0,86.0 0 0,1 -30.038265399797805,32.042727171017184" fill="none" id="id89" stroke="none" /><text fill="#e1ed5e" style="font-size:6.75px; font-family:Arial;" text-anchor="middle"><textPath startOffset="22.206326154141568" xlink:href="#id89">May</textPath></text><path d="M 118.48025628344425 109.97397251340804 l 47.41102486569352 25.5881872843162 a74.8754174676415,74.8754174676415 0 0,0 -0.6219066265963423,1.1289411722632028 l -46.96354182964567 -26.400498974977207" fill="#3fffbd" stroke="none" /><path d="M 118.30583269289576 110.29060199501025 l 23.47283215009553 13.195224571568149 a47.927454403279086,47.927454403279086 0 0,0 -0.41045985732988527,0.7156713590189919 l -23.24222029661327 -13.597315776445456" fill="#ffe515" stroke="none" /><path d="M 117.94076556474637 110.91462005526583 l 53.63868076103767 32.63215377624826 a83.78507413280028,83.78507413280028 0 0,0 -0.7601913947780734,1.225670578591846 l -53.069024726591635 -33.55062068620538" fill="#4dd4ff" stroke="none" /><path d="M 117.14729908036423 112.12312394758627 l 51.44189724109271 36.36937184275882 a84.0,84.0 0 0,0 -0.8448808304975888,1.1734655781954753 l -50.80823661821952 -37.24947102640542" fill="#4dd2ff" stroke="none" /><path d="M 116.71984013943494 112.70617746262583 l 35.79265009227069 27.200485180322552 a65.95531330858091,65.95531330858091 0 0,0 -0.6947078891478334,0.8980035942894445 l -35.319135385904794 -27.81256676872525" fill="#31ff3f" stroke="none" /><path d="M 115.80600337817218 113.82643327865902 l 40.75296084022091 35.6489923786337 a75.14475482312633,75.14475482312633 0 0,0 -0.8600179436706553,0.9662392767016055 l -40.13328404690191 -36.34520582507617" fill="#3fffc0" stroke="none" /><path d="M 115.56566222782051 114.09645910891815 l 33.42988773045407 30.274525973319513 a66.10104562623755,66.10104562623755 0 0,0 -0.7710327886374075,0.8368038112407128 l -32.90380853382094 -30.84548103936156" fill="#31ff41" stroke="none" /><path d="M 115.07121518719521 114.62390073753431 l 32.24850134886077 31.291364153612577 a65.93456698179548,65.93456698179548 0 0,0 -0.7973667341871763,0.8077282919683564 l -31.705093989618057 -31.8418329395616" fill="#31ff3f" stroke="none" /><path d="M 114.81725581225074 114.88116024355365 l 31.660341931759376 31.796887873304915 a65.87114139024598,65.87114139024598 0 0,0 -0.810372024534802,0.7931195867093526 l -31.108319954848778 -32.33715756293684" fill="#31ff3e" stroke="none" /><path d="M 114.55890576462653 115.13401014063108 l 31.08234275837134 32.31015421795538 a65.83367146394481,65.83367146394481 0 0,0 -0.8234355420984172,0.778609701309158 l -30.521571381882115 -32.84039855601046" fill="#31ff3d" stroke="none" /><path d="M 113.48314897796784 116.09983520530334 l 28.85283963319356 34.45233484095745 a65.93828802805282,65.93828802805282 0 0,0 -0.8764450410120722,0.7212546006783339 l -28.255524463636796 -34.94388456049296" fill="#31ff3f" stroke="none" /><path d="M 113.20401910651253 116.32954008644616 l 28.395238475521662 35.1166702509186 a66.16049266331687,66.16049266331687 0 0,0 -0.8917253203085955,0.7084405253663163 l -27.786555662495715 -35.60024469029004" fill="#31ff42" stroke="none" /><path d="M 112.92097659922987 116.55440617244103 l 8.24787711995506 10.567212691357806 a34.404978964932084,34.404978964932084 0 0,0 -0.46999047913450803,0.3603686579781858 l -8.064757912327057 -10.707620691163363" fill="#ff0000" stroke="none" /><line stroke="#e1ed5e" stroke-width="0.3" x1="143.8653032363475" x2="146.44561519142675" y1="172.8068346515853" y2="177.08958963109032" /><path d="M 144.38136562736335 173.6633856474863 a86.0,86.0 0 0,1 -40.68145358897372,12.25698825130547" fill="none" id="id90" stroke="none" /><text fill="#e1ed5e" style="font-size:6.75px; font-family:Arial;" text-anchor="middle"><textPath startOffset="21.466115282336833" xlink:href="#id90">June</textPath></text><path d="M 110.8373102113329 117.98757091392108 l 23.1045275153404 38.34847568359041 a65.77080275092291,65.77080275092291 0 0,0 -0.9747612840162896,0.575906148153614 l -22.440998360295726 -38.740500404037775" fill="#31ff3c" stroke="none" /><path d="M 109.57404056367764 118.69057910512821 l 20.466306553968735 39.9546167673451 a65.89143687816684,65.89143687816684 0 0,0 -1.0139314449689363,0.5084062753789432 l -19.775521201317037 -40.30099088363335" fill="#31ff3e" stroke="none" /><line stroke="#e1ed5e" stroke-width="0.3" x1="102.19456741930631" x2="102.32365962044197" y1="184.97166512339345" y2="189.96999836594603" /><path d="M 102.22038585953345 185.97133177190398 a86.0,86.0 0 0,1 -42.740103519485714,-10.115201625700543" fill="none" id="id91" stroke="none" /><text fill="#e1ed5e" style="font-size:6.75px; font-family:Arial;" text-anchor="middle"><textPath startOffset="22.20632615414155" xlink:href="#id91">July</textPath></text><line stroke="#e1ed5e" stroke-width="0.3" x1="58.666819895761336" x2="56.23545636021788" y1="174.27360380694188" y2="178.64263932499728" /><path d="M 58.180547188652646 175.14741091055294 a86.0,86.0 0 0,1 -31.652253787137756,-30.449443065178592" fill="none" id="id92" stroke="none" /><text fill="#e1ed5e" style="font-size:6.75px; font-family:Arial;" text-anchor="middle"><textPath startOffset="22.20632615414155" xlink:href="#id92">August</textPath></text><line stroke="#e1ed5e" stroke-width="0.3" x1="26.63291911575756" x2="22.317208475507996" y1="142.92168965132927" y2="145.44649492493687" /><path d="M 25.769776987707644 143.4266507060508 a86.0,86.0 0 0,1 -11.730757126820373,-40.83630448921669" fill="none" id="id93" stroke="none" /><text fill="#e1ed5e" style="font-size:6.75px; font-family:Arial;" text-anchor="middle"><textPath startOffset="21.46611528233685" xlink:href="#id93">September</textPath></text><line stroke="#e1ed5e" stroke-width="0.3" x1="15.007084014347285" x2="10.007500721073583" y1="101.09737516637583" y2="101.16192664675087" /><path d="M 14.007167355692545 101.11028546245083 a86.0,86.0 0 0,1 10.666146001902534,-42.60595125391555" fill="none" id="id94" stroke="none" /><text fill="#e1ed5e" style="font-size:6.75px; font-family:Arial;" text-anchor="middle"><textPath startOffset="22.20632615414155" xlink:href="#id94">October</textPath></text><line stroke="#e1ed5e" stroke-width="0.3" x1="26.266209847984243" x2="21.928928074336255" y1="57.711370442889674" y2="55.22380399835377" /><path d="M 25.398753493254645 57.213857153982495 a86.0,86.0 0 0,1 29.58750427330803,-30.492523968695096" fill="none" id="id95" stroke="none" /><text fill="#e1ed5e" style="font-size:6.75px; font-family:Arial;" text-anchor="middle"><textPath startOffset="21.46611528233685" xlink:href="#id95">November</textPath></text><line stroke="#e1ed5e" stroke-width="0.3" x1="56.762969772571076" x2="54.21961505331055" y1="26.818313649435495" y2="22.513508569990535" /><path d="M 56.25429882871897 25.957352633546506 a86.0,86.0 0 0,1 42.265352541879196,-11.944610805530505" fill="none" id="id96" stroke="none" /><text fill="#e1ed5e" style="font-size:6.75px; font-family:Arial;" text-anchor="middle"><textPath startOffset="22.20632615414155" xlink:href="#id96">December</textPath></text></svg>