<?xml version="1.0" encoding="utf-8" ?>
<svg baseProfile="full" height="200mm" version="1.1" viewBox="0,0,200,200" width="200mm" xmlns="http://www.w3.org/2000/svg" xmlns:ev="http://www.w3.org/2001/xml-events" xmlns:xlink="http://www.w3.org/1999/xlink"><defs /><rect fill="#1a1a1a" height="200" width="200" x="0" y="0" /><text alignment-baseline="middle" fill="#e1ed5e" style="dominant-baseline: central; font-size:9.0px; font-family:Arial;" text-anchor="middle" x="100.0" y="100.0">2022</text><line stroke="#e1ed5e" stroke-width="0.3" x1="100.0" x2="100.0" y1="15.0" y2="10.0" /><path d="M 100.0 14.0 a86.0,86.0 0 0,1 42.46469731375804,11.215312516191453" fill="none" id="id85" stroke="none" /><text fill="#e1ed5e" style="font-size:6.75px; font-family:Arial;" text-anchor="middle"><textPath startOffset="22.20632615414155" xlink:href="#id85">January</textPath></text><path d="M 100.0 79.0 l 0.0 -53.02570353956115 a74.02570353956115,74.02570353956115 0 0,0 1.2742307997126983,0.01096770678214781 l -0.9127503204401699 53.01784720938756" fill="#35ff63" stroke="none" /><path d="M 100.36148047927253 79.00311137660856 l 0.9066666240886705 -52.66447074223216 a73.67227470811056,73.67227470811056 0 0,0 1.2677713240056168,0.032742793009332215 l -1.8130645832891552 52.64106115708047" fill="#34ff5b" stroke="none" /><path d="M 102.16513564639614 79.11191278185805 l 3.2523394452046523 -31.376856275733214 a52.54496507550536,52.54496507550536 0 0,0 0.8988524294304833,0.10099654358063587 l -3.7919585781448606 31.316223778681977" fill="#ff0500" stroke="none" /><path d="M 102.52436894288641 79.15227682838746 l 6.329848795296458 -52.27561358428735 a73.65744734968686,73.65744734968686 0 0,0 1.2573861909795965,0.16324481481446387 l -7.228749714783901 52.158910446308745" fill="#34ff5a" stroke="none" /><path d="M 102.88285421437855 79.19881850522331 l 7.311497809872793 -52.75597780257883 a74.26022149906969,74.26022149906969 0 0,0 1.264655177538388,0.18637729906805578 l -8.218521967839838 52.62230601934981" fill="#35ff68" stroke="none" /><path d="M 103.2404852339499 79.25152402106235 l 4.864766381691098 -31.148572243493078 a52.52617174280029,52.52617174280029 0 0,0 0.892121493999541,0.14720769050185165 l -5.400217081829514 31.0602182900516" fill="#ff0400" stroke="none" /><path d="M 103.59715602781102 79.31037775812273 l 5.416794460854233 -31.155565755418724 a52.622949574183636,52.622949574183636 0 0,0 0.8910941719302726,0.16284176418965154 l -5.952283753887406 31.057708509878335" fill="#ff0701" stroke="none" /><path d="M 103.95276090670814 79.375362276772 l 5.938775249713068 -30.987224103825433 a52.551182372889045,52.551182372889045 0 0,0 0.8869478216748083,0.17791338905607407 l -6.471289480855002 30.88040675869215" fill="#ff0500" stroke="none" /><path d="M 104.307194497241 79.44645832069477 l 6.48177119660524 -30.930424556049836 a52.602286642941394,52.602286642941394 0 0,0 0.8846133454341165,0.19334221419652187 l -7.013227266192883 30.814268843757446" fill="#ff0701" stroke="none" /><path d="M 104.66035177308747 79.52364482259891 l 7.006227199299222 -30.783512398115743 a52.5707436582217,52.5707436582217 0 0,0 0.8806258275108347,0.20841568149245057 l -7.535076713772581 30.658350804482424" fill="#ff0600" stroke="none" /><path d="M 105.01212808612495 79.60689891045804 l 13.863074747477857 -56.40539903994472 a79.08402432949661,79.08402432949661 0 0,0 1.3191633699828518,0.3362841154063051 l -14.831947006145734 56.158411928369546" fill="#41ffcf" stroke="none" /><path d="M 105.36241919743992 79.69619591428918 l 8.054143173479204 -30.495516864973517 a52.54117580434797,52.54117580434797 0 0,0 0.8724389955068681,0.23847053404601187 l -8.577880058209782 30.35235979010121" fill="#ff0500" stroke="none" /><path d="M 105.71112130821622 79.79150937346287 l 8.62201458071726 -30.50852738596648 a52.70346004287809,52.70346004287809 0 0,0 0.8708864854619611,0.25423564638618523 l -9.145891283902648 30.35559341066159" fill="#ff0a01" stroke="none" /><path d="M 106.0581310904928 79.89281104454417 l 9.08343010803859 -30.148282171152506 a52.48694364969477,52.48694364969477 0 0,0 0.8628219375991865,0.26808297601404785 l -9.601037418348493 29.98745906025594" fill="#ff0300" stroke="none" /><path d="M 106.40334571778207 80.00007090966166 l 9.607974523016201 -30.00912610863365 a52.50969413115282,52.50969413115282 0 0,0 0.8584514282867276,0.2830179389996109 l -10.123108773545347 29.839294445374804" fill="#ff0400" stroke="none" /><path d="M 107.4271985657038 80.35727306442388 l 18.57102724741021 -49.11483298944968 a73.50856951589509,73.50856951589509 0 0,0 1.1796964496975677,0.45770389479867707 l -19.413706862107446 48.787886390760455" fill="#33ff57" stroke="none" /><path d="M 107.76421540070413 80.48803036053334 l 23.292646202112408 -58.53590891839998 a84.0,84.0 0 0,0 1.33886452164645,0.5461564552656828 l -24.296794593347244 58.12629157695072" fill="#4dd2ff" stroke="none" /><path d="M 108.43124777332544 80.76684994638697 l 12.639038464867205 -28.83185619301275 a52.48048959039488,52.48048959039488 0 0,0 0.824238280882392,0.3698116906627265 l -13.133458864216378 28.610024171833494" fill="#ff0300" stroke="none" /><line stroke="#e1ed5e" stroke-width="0.3" x1="143.23703022742887" x2="145.7803849466894" y1="26.81831364943548" y2="22.513508569990506" /><path d="M 143.74570117128098 25.957352633546492 a86.0,86.0 0 0,1 28.547481713284135,27.462654790039103" fill="none" id="id86" stroke="none" /><text fill="#e1ed5e" style="font-size:6.75px; font-family:Arial;" text-anchor="middle"><textPath startOffset="19.985693538727396" xlink:href="#id86">February</textPath></text><path d="M 112.19680574252982 82.90503203632743 l 18.397051519496323 -25.785194336184585 a52.67534927298841,52.67534927298841 0 0,0 0.7335786955993101,0.5329761199915947 l -18.838175531449423 25.464698981376316" fill="#ff0901" stroke="none" /><path d="M 112.48926042617603 83.11751280151076 l 18.729194181889724 -25.317382312812057 a52.492103166921396,52.492103166921396 0 0,0 0.7217760327028724,0.5436267438453798 l -19.162216368350983 24.991238979460828" fill="#ff0400" stroke="none" /><path d="M 112.77801427241765 83.33499621200491 l 19.124317385877937 -24.941811370991353 a52.42981816590587,52.42981816590587 0 0,0 0.7114662531520896,0.5553106956759167 l -19.55081619418946 24.608922286092213" fill="#ff0200" stroke="none" /><path d="M 113.06298171725822 83.55741782278167 l 19.642047026198405 -24.723755980640014 a52.57648050637725,52.57648050637725 0 0,0 0.7037652374182346,0.5690625450671855 l -20.064715662181133 24.381987338308697" fill="#ff0601" stroke="none" /><path d="M 113.34407831869373 83.78471172551755 l 20.302414537845365 -24.67083125089398 a52.95055477885481,52.95055477885481 0 0,0 0.698802246228238,0.5852267847393985 l -20.72407432103272 24.317703308760763" fill="#ff1101" stroke="none" /><path d="M 113.89432698308785 84.25364557470407 l 34.787043109427024 -39.42393977598416 a73.57742287101527,73.57742287101527 0 0,0 0.9424532530146007,0.8461438359786073 l -35.46050735003762 38.81929693123625" fill="#34ff58" stroke="none" /><path d="M 114.68862486808459 84.99185889309783 l 21.941261859682406 -22.41854203582402 a52.368933660664375,52.368933660664375 0 0,0 0.6388117136797457,0.6360684531675107 l -22.323909373529474 22.037537732006392" fill="#ff0000" stroke="none" /><path d="M 114.94478906791727 85.2469230424477 l 22.437798489914325 -22.14996587609177 a52.5289674646353,52.5289674646353 0 0,0 0.6296865857916856,0.6489473776718824 l -22.81574933940912 21.76045430286977" fill="#ff0500" stroke="none" /><path d="M 115.19652480421416 85.50635884689758 l 22.816003359125723 -21.760696573432664 a52.52931849318409,52.52931849318409 0 0,0 0.61842686124459,0.659694657009801 l -23.187197542340776 21.364732499544807" fill="#ff0500" stroke="none" /><line stroke="#e1ed5e" stroke-width="0.3" x1="172.23445277983987" x2="176.4835382374775" y1="55.19839476539836" y2="52.563006222186495" /><path d="M 173.08426987136738 54.67131705675599 a86.0,86.0 0 0,1 12.851231095245387,41.99856678651699" fill="none" id="id87" stroke="none" /><text fill="#e1ed5e" style="font-size:6.75px; font-family:Arial;" text-anchor="middle"><textPath startOffset="22.20632615414155" xlink:href="#id87">March</textPath></text><line stroke="#e1ed5e" stroke-width="0.3" x1="184.98032266829074" x2="189.97916517819016" y1="98.17113171792111" y2="98.06355123074" /><path d="M 185.9800911702706 98.14961562048488 a86.0,86.0 0 0,1 -9.607161424134198,41.387399972396054" fill="none" id="id88" stroke="none" /><text fill="#e1ed5e" style="font-size:6.75px; font-family:Arial;" text-anchor="middle"><textPath startOffset="21.466115282336823" xlink:href="#id88">April</textPath></text><line stroke="#e1ed5e" stroke-width="0.3" x1="174.80103733775053" x2="179.2010983576182" y1="140.37084112569926" y2="142.7455964860345" /><path d="M 175.68104954172406 140.8457921977663 a86.0,86.0 0 0,1 -30.038265399797805,32.042727171017184" fill="none" id="id89" stroke="none" /><text fill="#e1ed5e" style="font-size:6.75px; font-family:Arial;" text-anchor="middle"><textPath startOffset="22.206326154141568" xlink:href="#id89">May</textPath></text><line stroke="#e1ed5e" stroke-width="0.3" x1="143.8653032363475" x2="146.44561519142675" y1="172.8068346515853" y2="177.08958963109032" /><path d="M 144.38136562736335 173.6633856474863 a86.0,86.0 0 0,1 -40.68145358897372,12.25698825130547" fill="none" id="id90" stroke="none" /><text fill="#e1ed5e" style="font-size:6.75px; font-family:Arial;" text-anchor="middle"><textPath startOffset="21.466115282336833" xlink:href="#id90">June</textPath></text><line stroke="#e1ed5e" stroke-width="0.3" x1="102.19456741930631" x2="102.32365962044197" y1="184.97166512339345" y2="189.96999836594603" /><path d="M 102.22038585953345 185.97133177190398 a86.0,86.0 0 0,1 -42.740103519485714,-10.115201625700543" fill="none" id="id91" stroke="none" /><text fill="#e1ed5e" style="font-size:6.75px; font-family:Arial;" text-anchor="middle"><textPath startOffset="22.20632615414155" xlink:href="#id91">July</textPath></text><line stroke="#e1ed5e" stroke-width="0.3" x1="58.666819895761336" x2="56.23545636021788" y1="174.27360380694188" y2="178.64263932499728" /><path d="M 58.180547188652646 175.14741091055294 a86.0,86.0 0 0,1 -31.652253787137756,-30.449443065178592" fill="none" id="id92" stroke="none" /><text fill="#e1ed5e" style="font-size:6.75px; font-family:Arial;" text-anchor="middle"><textPath startOffset="22.20632615414155" xlink:href="#id92">August</textPath></text><line stroke="#e1ed5e" stroke-width="0.3" x1="26.63291911575756" x2="22.317208475507996" y1="142.92168965132927" y2="145.44649492493687" /><path d="M 25.769776987707644 143.4266507060508 a86.0,86.0 0 0,1 -11.730757126820373,-40.83630448921669" fill="none" id="id93" stroke="none" /><text fill="#e1ed5e" style="font-size:6.75px; font-family:Arial;" text-anchor="middle"><textPath startOffset="21.46611528233685" xlink:href="#id93">September</textPath></text><line stroke="#e1ed5e" stroke-width="0.3" x1="15.007084014347285" x2="10.007500721073583" y1="101.09737516637583" y2="101.16192664675087" /><path d="M 14.007167355692545 101.11028546245083 a86.0,86.0 0 0,1 10.666146001902534,-42.60595125391555" fill="none" id="id94" stroke="none" /><text fill="#e1ed5e" style="font-size:6.75px; font-family:Arial;" text-anchor="middle"><textPath startOffset="22.20632615414155" xlink:href="#id94">October</textPath></text><line stroke="#e1ed5e" stroke-width="0.3" x1="26.266209847984243" x2="21.928928074336255" y1="57.711370442889674" y2="55.22380399835377" /><path d="M 25.398753493254645 57.213857153982495 a86.0,86.0 0 0,1 29.58750427330803,-30.492523968695096" fill="none" id="id95" stroke="none" /><text fill="#e1ed5e" style="font-size:6.75px; font-family:Arial;" text-anchor="middle"><textPath startOffset="21.46611528233685" xlink:href="#id95">November</textPath></text><line stroke="#e1ed5e" stroke-width="0.3" x1="56.762969772571076" x2="54.21961505331055" y1="26.818313649435495" y2="22.513508569990535" /><path d="M 56.25429882871897 25.957352633546506 a86.0,86.0 0 0,1 42.265352541879196,-11.944610805530505" fill="none" id="id96" stroke="none" /><text fill="#e1ed5e" style="font-size:6.75px; font-family:Arial;" text-anchor="middle"><textPath startOffset="22.20632615414155" xlink:href="#id96">December</textPath></text></svg>