<?xml version="1.0" encoding="utf-8" ?>
<svg baseProfile="full" height="200mm" version="1.1" viewBox="0,0,200,200" width="200mm" xmlns="http://www.w3.org/2000/svg" xmlns:ev="http://www.w3.org/2001/xml-events" xmlns:xlink="http://www.w3.org/1999/xlink"><defs /><rect fill="#1a1a1a" height="200" width="200" x="0" y="0" /><text alignment-baseline="middle" fill="#e1ed5e" style="dominant-baseline: central; font-size:9.0px; font-family:Arial;" text-anchor="middle" x="100.0" y="100.0">2021</text><line stroke="#e1ed5e" stroke-width="0.3" x1="100.0" x2="100.0" y1="15.0" y2="10.0" /><path d="M 100.0 14.0 a86.0,86.0 0 0,1 42.46469731375804,11.215312516191453" fill="none" id="id73" stroke="none" /><text fill="#e1ed5e" style="font-size:6.75px; font-family:Arial;" text-anchor="middle"><textPath startOffset="22.20632615414155" xlink:href="#id73">January</textPath></text><path d="M 107.76421540070413 80.48803036053334 l 4.283158697490763 -10.763851613245832 a32.58472917162355,32.58472917162355 0 0,0 0.5193635456588678,0.21186143071626437 l -4.467806112738018 10.688529296345989" fill="#ff3b05" stroke="none" /><path d="M 108.09893153111575 80.62456947434976 l 13.352141032390184 -31.942914932399685 a55.62122881307595,55.62122881307595 0 0,0 0.8801827498212592,0.37684831861019363 l -13.90000754000176 31.708347085826702" fill="#81ff25" stroke="none" /><path d="M 108.43124777332544 80.76684994638697 l 13.893592131534405 -31.693712417622756 a55.605249733651824,55.605249733651824 0 0,0 0.8733145556799371,0.39183078462531123 l -14.437088805681121 31.449861302480915" fill="#82ff25" stroke="none" /><path d="M 108.76106565485865 80.91482961587045 l 14.425775674305322 -31.425216693207222 a55.578132512043055,55.578132512043055 0 0,0 0.8660179015818427,0.4066070168249501 l -14.964571787186763 31.172244693742268" fill="#82ff25" stroke="none" /><path d="M 109.08828744355905 81.06846463323043 l 14.953119127149968 -31.148388005683415 a55.55166923584649,55.55166923584649 0 0,0 0.8584815634554683,0.4212531748431026 l -15.487071957615868 30.886379670705484" fill="#82ff25" stroke="none" /><path d="M 109.41281617654863 81.2277094730956 l 15.485395096910187 -30.883035451956303 a55.54792815834547,55.54792815834547 0 0,0 0.8510458724343289,0.43593875066188376 l -16.01470145693327 30.611904175981916" fill="#82ff25" stroke="none" /><path d="M 109.73455568895987 81.39251694778311 l 21.33208910272631 -40.7760250318906 a67.0189335261914,67.0189335261914 0 0,0 1.017586615772189,0.5435595288892956 l -22.03082076502681 40.402786776499546" fill="#35ff68" stroke="none" /><path d="M 110.05341064243156 81.56283822128135 l 27.63321370083201 -50.67713332208224 a78.72145477359305,78.72145477359305 0 0,0 1.1841052969611094,0.6589533157552538 l -28.50144308686515 50.193964608766805" fill="#46fff4" stroke="none" /><path d="M 110.36928655335952 81.73862282372117 l 28.416738993407055 -50.0447920122672 a78.54991105614764,78.54991105614764 0 0,0 1.1700318496628959,0.677757967655016 l -29.273967575535277 49.548229887222135" fill="#45fff2" stroke="none" /><line stroke="#e1ed5e" stroke-width="0.3" x1="143.23703022742887" x2="145.7803849466894" y1="26.81831364943548" y2="22.513508569990506" /><path d="M 143.74570117128098 25.957352633546492 a86.0,86.0 0 0,1 28.547481713284135,27.462654790039103" fill="none" id="id74" stroke="none" /><text fill="#e1ed5e" style="font-size:6.75px; font-family:Arial;" text-anchor="middle"><textPath startOffset="19.985693538727396" xlink:href="#id74">February</textPath></text><path d="M 110.68208982089419 81.91981866633111 l 17.6098907354946 -29.80596710028279 a55.61941545576988,55.61941545576988 0 0,0 0.8200895657098753,0.4940947872954194 l -18.12034236742211 29.498425703528756" fill="#81ff25" stroke="none" /><path d="M 110.99172775467656 82.1063720568725 l 24.076048438678537 -39.193824912479045 a66.99795669039722,66.99795669039722 0 0,0 0.9774709885776331,0.6120922433739531 l -24.74713857962843 38.77358832778215" fill="#35ff67" stroke="none" /><path d="M 111.2981086023043 82.29822771554956 l 24.78925735026307 -38.83957962888571 a67.07624361562176,67.07624361562176 0 0,0 0.9679196953361929,0.6295618942846019 l -25.454144071383542 38.407118810441574" fill="#35ff69" stroke="none" /><path d="M 111.60114157652 82.49532879139004 l 25.47332984535045 -38.436067743006376 a67.11097306449949,67.11097306449949 0 0,0 0.9574348801872887,0.6464643049996696 l -26.13116941994428 37.99189152570804" fill="#35ff69" stroke="none" /><path d="M 111.90073688211348 82.69761687909136 l 26.087492819698426 -37.92839047712941 a67.03390148361768,67.03390148361768 0 0,0 0.9450786105484047,0.662087962684353 l -26.73650256983048 37.47371767168112" fill="#35ff68" stroke="none" /><path d="M 112.19680574252982 82.90503203632743 l 33.28488296044805 -46.651887378951535 a78.30865580092681,78.30865580092681 0 0,0 1.0905587218581,0.7923372907170745 l -34.08298699865994 46.072030853417786" fill="#45fff0" stroke="none" /><path d="M 112.48926042617603 83.11751280151076 l 20.49513864612501 -27.70451604158029 a55.46144102068378,55.46144102068378 0 0,0 0.7626049720392875,0.5743782544808861 l -20.968989771922683 27.347621197593558" fill="#83ff25" stroke="none" /><path d="M 112.77801427241765 83.33499621200491 l 21.034949896035737 -27.43364596597823 a55.569843044413254,55.569843044413254 0 0,0 0.7540760086932357,0.5885682857405244 l -21.504058459888405 27.067499291014478" fill="#82ff25" stroke="none" /><path d="M 113.06298171725822 83.55741782278167 l 21.45173446958276 -27.00163825491551 a55.48572719550513,55.48572719550513 0 0,0 0.7427071115635371,0.600550832400199 l -21.91334497971079 26.62838132525118" fill="#83ff25" stroke="none" /><path d="M 117.45458315368197 88.32363383020206 l 47.80495167890625 -31.97945866811828 a78.51520826467072,78.51520826467072 0 0,0 0.7417943569182824,1.129803697172111 l -48.34834267118246 31.151836906968494" fill="#45fff2" stroke="none" /><path d="M 117.65298651832404 88.62581576622439 l 48.35043592578877 -31.153185634194664 a78.51769840120863,78.51769840120863 0 0,0 0.7222596446379311,1.1424413067883719 l -48.879523166672655 30.316296679692083" fill="#45fff2" stroke="none" /><line stroke="#e1ed5e" stroke-width="0.3" x1="172.23445277983987" x2="176.4835382374775" y1="55.19839476539836" y2="52.563006222186495" /><path d="M 173.08426987136738 54.67131705675599 a86.0,86.0 0 0,1 12.851231095245387,41.99856678651699" fill="none" id="id75" stroke="none" /><text fill="#e1ed5e" style="font-size:6.75px; font-family:Arial;" text-anchor="middle"><textPath startOffset="22.20632615414155" xlink:href="#id75">March</textPath></text><path d="M 118.73160827565052 90.50648371742162 l 51.20397064238194 -25.951094101087655 a78.40475498240035,78.40475498240035 0 0,0 0.5997589916554287,1.209077529387597 l -51.643089646990774 25.065856983201108" fill="#45fff1" stroke="none" /><path d="M 118.89224826269711 90.83032412892265 l 51.67253501144756 -25.08014879454193 a78.43748547826269,78.43748547826269 0 0,0 0.5790994961457556,1.2197312276672219 l -52.09659270143507 24.18697515123417" fill="#45fff1" stroke="none" /><path d="M 119.04729006885535 91.15688171328212 l 41.75625537887001 -19.386248867471448 a67.03706667911139,67.03706667911139 0 0,0 0.4769134494968027,1.0508155686928846 l -42.083771145330154 18.6646112899365" fill="#35ff68" stroke="none" /><path d="M 119.7369772167798 92.82701384747503 l 53.98289457142458 -19.61893916079722 a78.43740662760293,78.43740662760293 0 0,0 0.45025655801075043,1.2729359216965652 l -54.31260421024514 18.68680561267404" fill="#45fff1" stroke="none" /><path d="M 119.85752413597 93.16781622104841 l 54.312890645744346 -18.686904163729952 a78.43770954278219,78.43770954278219 0 0,0 0.42828000221520296,1.2805026941158484 l -54.626507941731326 17.74922836669179" fill="#45fff1" stroke="none" /><path d="M 120.45610955862082 95.25157060432595 l 7.696609392220003 -1.7865961355118247 a28.901248122153547,28.901248122153547 0 0,0 0.10831859285049071,0.4855710126070897 l -7.726222372072531 1.653846953354771" fill="#ff0000" stroke="none" /><line stroke="#e1ed5e" stroke-width="0.3" x1="184.98032266829074" x2="189.97916517819016" y1="98.17113171792111" y2="98.06355123074" /><path d="M 185.9800911702706 98.14961562048488 a86.0,86.0 0 0,1 -9.607161424134198,41.387399972396054" fill="none" id="id76" stroke="none" /><text fill="#e1ed5e" style="font-size:6.75px; font-family:Arial;" text-anchor="middle"><textPath startOffset="21.466115282336823" xlink:href="#id76">April</textPath></text><path d="M 120.32669344350535 105.2749913415812 l 33.523816378453226 8.699783938031548 a55.634267787044095,55.634267787044095 0 0,0 -0.248531318210443,0.9248774909807914 l -33.369096983901 -9.275552362187886" fill="#81ff25" stroke="none" /><path d="M 120.23288151984713 105.62410040840565 l 27.757492887998808 7.715704109401159 a49.80990283446187,49.80990283446187 0 0,0 -0.23673309804129727,0.8240989707465195 l -27.62056715307141 -8.192360555652261" fill="#caff1d" stroke="none" /><line stroke="#e1ed5e" stroke-width="0.3" x1="174.80103733775053" x2="179.2010983576182" y1="140.37084112569926" y2="142.7455964860345" /><path d="M 175.68104954172406 140.8457921977663 a86.0,86.0 0 0,1 -30.038265399797805,32.042727171017184" fill="none" id="id77" stroke="none" /><text fill="#e1ed5e" style="font-size:6.75px; font-family:Arial;" text-anchor="middle"><textPath startOffset="22.206326154141568" xlink:href="#id77">May</textPath></text><path d="M 117.14729908036423 112.12312394758627 l 46.900368279413314 33.15851523753172 a78.43806819089777,78.43806819089777 0 0,0 -0.7889383356637167,1.0957663457400948 l -46.322650151374 -33.96091518872294" fill="#45fff1" stroke="none" /><path d="M 116.93607887273984 112.41649034213515 l 46.16361226518867 33.84431840190518 a78.24086814034371,78.24086814034371 0 0,0 -0.805652677111631,1.0793034188698831 l -45.57419832138195 -34.63393470028438" fill="#45ffef" stroke="none" /><path d="M 116.71984013943494 112.70617746262583 l 49.024847709098516 37.256242277150335 a82.57485916763453,82.57485916763453 0 0,0 -0.8697617103361354,1.124284255667892 l -48.37627918154431 -38.094604526931484" fill="#4be1ff" stroke="none" /><path d="M 116.498646956653 112.99209946851258 l 45.02600353192142 35.45638124709555 a78.31052229037866,78.31052229037866 0 0,0 -0.8430764946420813,1.0518675560031348 l -44.409009125224486 -36.22617663667693" fill="#45fff0" stroke="none" /><path d="M 116.0416608686014 113.55231037782055 l 43.88086822037472 37.07141988861959 a78.44406643276773,78.44406643276773 0 0,0 -0.8802824683147217,1.0239673830531475 l -43.23624324248922 -37.821264370834264" fill="#45fff1" stroke="none" /><path d="M 115.56566222782051 114.09645910891815 l 42.58784255674384 38.56808482360616 a78.4562572797679,78.4562572797679 0 0,0 -0.9151496207567111,0.9932141690861874 l -41.91764652799141 -39.29545024749368" fill="#45fff1" stroke="none" /><path d="M 115.32070863581623 114.36230785411682 l 29.28122210465141 27.44950877981166 a61.135588947901134,61.135588947901134 0 0,0 -0.7263299485757103,0.7615540472527651 l -28.804385604696737 -27.94946994364693" fill="#41ff2d" stroke="none" /><line stroke="#e1ed5e" stroke-width="0.3" x1="143.8653032363475" x2="146.44561519142675" y1="172.8068346515853" y2="177.08958963109032" /><path d="M 144.38136562736335 173.6633856474863 a86.0,86.0 0 0,1 -40.68145358897372,12.25698825130547" fill="none" id="id78" stroke="none" /><text fill="#e1ed5e" style="font-size:6.75px; font-family:Arial;" text-anchor="middle"><textPath startOffset="21.466115282336833" xlink:href="#id78">June</textPath></text><path d="M 103.7750983002368 120.6578951692458 l 6.205528533754136 33.95756818094381 a55.51992209068097,55.51992209068097 0 0,0 -0.9415941598279849,0.16370821410752173 l -5.620085402454101 -34.05935497357233" fill="#83ff25" stroke="none" /><path d="M 103.41894727170886 120.7198165907248 l 5.602449685159129 33.952477388526965 a55.41159925509383,55.41159925509383 0 0,0 -0.9424302854293582,0.14718822852633273 l -5.017183536121253 -34.043883924400404" fill="#84ff25" stroke="none" /><line stroke="#e1ed5e" stroke-width="0.3" x1="102.19456741930631" x2="102.32365962044197" y1="184.97166512339345" y2="189.96999836594603" /><path d="M 102.22038585953345 185.97133177190398 a86.0,86.0 0 0,1 -42.740103519485714,-10.115201625700543" fill="none" id="id79" stroke="none" /><text fill="#e1ed5e" style="font-size:6.75px; font-family:Arial;" text-anchor="middle"><textPath startOffset="22.20632615414155" xlink:href="#id79">July</textPath></text><line stroke="#e1ed5e" stroke-width="0.3" x1="58.666819895761336" x2="56.23545636021788" y1="174.27360380694188" y2="178.64263932499728" /><path d="M 58.180547188652646 175.14741091055294 a86.0,86.0 0 0,1 -31.652253787137756,-30.449443065178592" fill="none" id="id80" stroke="none" /><text fill="#e1ed5e" style="font-size:6.75px; font-family:Arial;" text-anchor="middle"><textPath startOffset="22.20632615414155" xlink:href="#id80">August</textPath></text><line stroke="#e1ed5e" stroke-width="0.3" x1="26.63291911575756" x2="22.317208475507996" y1="142.92168965132927" y2="145.44649492493687" /><path d="M 25.769776987707644 143.4266507060508 a86.0,86.0 0 0,1 -11.730757126820373,-40.83630448921669" fill="none" id="id81" stroke="none" /><text fill="#e1ed5e" style="font-size:6.75px; font-family:Arial;" text-anchor="middle"><textPath startOffset="21.46611528233685" xlink:href="#id81">September</textPath></text><path d="M 81.18737489456691 109.33194174019688 l -20.70085616239049 10.268592639090729 a44.107778790778845,44.107778790778845 0 0,0 -0.3315366304801338,-0.6830636566953076 l 20.874546049485343 -9.910740026430137" fill="#ffe715" stroke="none" /><line stroke="#e1ed5e" stroke-width="0.3" x1="15.007084014347285" x2="10.007500721073583" y1="101.09737516637583" y2="101.16192664675087" /><path d="M 14.007167355692545 101.11028546245083 a86.0,86.0 0 0,1 10.666146001902534,-42.60595125391555" fill="none" id="id82" stroke="none" /><text fill="#e1ed5e" style="font-size:6.75px; font-family:Arial;" text-anchor="middle"><textPath startOffset="22.20632615414155" xlink:href="#id82">October</textPath></text><line stroke="#e1ed5e" stroke-width="0.3" x1="26.266209847984243" x2="21.928928074336255" y1="57.711370442889674" y2="55.22380399835377" /><path d="M 25.398753493254645 57.213857153982495 a86.0,86.0 0 0,1 29.58750427330803,-30.492523968695096" fill="none" id="id83" stroke="none" /><text fill="#e1ed5e" style="font-size:6.75px; font-family:Arial;" text-anchor="middle"><textPath startOffset="21.46611528233685" xlink:href="#id83">November</textPath></text><path d="M 88.09926311788651 82.69761687909137 l -19.185349836802146 -27.893421766506624 a54.85440335029861,54.85440335029861 0 0,0 0.7825772254704597,-0.5283996359871231 l 18.702367916925148 28.219533314792415" fill="#8bff24" stroke="none" /><path d="M 88.39885842347998 82.49532879139004 l -15.86415470705247 -23.93702467277154 a49.71676435036107,49.71676435036107 0 0,0 0.7174199509272208,-0.46662989241728775 l 15.449767730340962 24.206553489348362" fill="#cbff1d" stroke="none" /><path d="M 88.70189139769569 82.29822771554957 l -18.603726538683137 -29.148147041425105 a55.579084965837986,55.579084965837986 0 0,0 0.8108746267718385,-0.5077696168947463 l 18.099232759539056 29.464060999642783" fill="#82ff25" stroke="none" /><path d="M 89.00827224532344 82.1063720568725 l -18.05321512960468 -29.3891480862912 a55.49116701060927,55.49116701060927 0 0,0 0.8181985855398287,-0.49295549290129403 l 17.544654477847203 29.695550188651115" fill="#83ff25" stroke="none" /><line stroke="#e1ed5e" stroke-width="0.3" x1="56.762969772571076" x2="54.21961505331055" y1="26.818313649435495" y2="22.513508569990535" /><path d="M 56.25429882871897 25.957352633546506 a86.0,86.0 0 0,1 42.265352541879196,-11.944610805530505" fill="none" id="id84" stroke="none" /><text fill="#e1ed5e" style="font-size:6.75px; font-family:Arial;" text-anchor="middle"><textPath startOffset="22.20632615414155" xlink:href="#id84">December</textPath></text><path d="M 89.3179101791058 81.91981866633112 l -17.6111115259045 -29.808033373114338 a55.621815416736084,55.621815416736084 0 0,0 0.8285088385031371,-0.4799257958062266 l 17.095405954936044 30.10676332631061" fill="#81ff25" stroke="none" /><path d="M 89.63071344664047 81.73862282372117 l -17.070298468488318 -30.06254646745432 a55.57096744251056,55.57096744251056 0 0,0 0.8358823791452724,-0.46516763900369734 l 16.550292000271 30.351929504018205" fill="#82ff25" stroke="none" /><path d="M 89.94658935756843 81.56283822128135 l -16.475465445007366 -30.214703506413265 a55.414666489886166,55.414666489886166 0 0,0 0.8413924240610539,-0.44944269366848766 l 15.952927974418008 30.4938249265835" fill="#84ff25" stroke="none" /><path d="M 90.26544431104013 81.39251694778311 l -26.55327201307796 -50.756251723394904 a78.28239994631106,78.28239994631106 0 0,0 1.1993591042432148,-0.6143583165537144 l 25.675652421245985 51.20580256526112" fill="#45ffef" stroke="none" /><path d="M 90.58718382345135 81.22770947309562 l -25.606298731320123 -51.06748820832672 a78.12767181169906,78.12767181169906 0 0,0 1.2073654449750453,-0.5924489803186953 l 24.723462019334654 51.50069234878025" fill="#45ffee" stroke="none" /><path d="M 90.91171255644093 81.06846463323043 l -15.221005063643348 -31.706413058530796 a56.170664255678034,56.170664255678034 0 0,0 0.8752507252491483,-0.4109419513354 l 14.672976127094591 31.963719992506203" fill="#7bff26" stroke="none" /><path d="M 91.23893434514133 80.91482961587045 l -14.275037918626571 -31.09684844854561 a55.21681883241106,55.21681883241106 0 0,0 0.8672140101099872,-0.38909364765470905 l 13.737641790049809 31.33796242671685" fill="#86ff25" stroke="none" /><path d="M 91.56875222667455 80.76684994638697 l -13.745459037974683 -31.35579493578165 a55.236289521784194,55.236289521784194 0 0,0 0.8740912460707568,-0.3742402546068411 l 13.20368403411362 31.587754718351277" fill="#86ff25" stroke="none" /><path d="M 91.90106846888425 80.62456947434976 l -13.177955818833393 -31.52620397603474 a55.16957794152093,55.16957794152093 0 0,0 0.8793403640489584,-0.358705013417207 l 12.633331585196055 31.748369875635525" fill="#87ff25" stroke="none" /><path d="M 92.23578459929587 80.48803036053334 l -12.646610320135428 -31.781740185398455 a55.20549315243864,55.20549315243864 0 0,0 0.8859609798508052,-0.3437390959524549 l 12.097666175284948 31.99472198524146" fill="#86ff25" stroke="none" /><path d="M 92.57280143429618 80.3572730644239 l -20.210983335536046 -53.45202814323754 a78.14545616245245,78.14545616245245 0 0,0 1.2623009471842261,-0.46491609184386173 l 19.28790006257925 53.79200750288773" fill="#45ffee" stroke="none" /><path d="M 92.91201910852362 80.23233633223022 l -19.168210698157022 -53.458205939828645 a77.79084506920171,77.79084506920171 0 0,0 1.2643531114877804,-0.441107974373969 l 18.245175582605956 53.78023476737482" fill="#44ffea" stroke="none" /><path d="M 93.25333710446033 80.11325718540243 l -10.983228858019038 -32.37462000920372 a55.186946878713165,55.186946878713165 0 0,0 0.9022203262598991,-0.29744785650976385 l 10.42432570951673 32.558881589972714" fill="#87ff25" stroke="none" /><path d="M 93.59665428221793 80.00007090966166 l -10.463490022983652 -32.681205688456906 a55.3153876375061,55.3153876375061 0 0,0 0.9093181393639634,-0.2825295722342731 l 9.899386510908961 32.8564753955737" fill="#85ff25" stroke="none" /><path d="M 93.94186890950719 79.89281104454417 l -9.871239631085157 -32.76305473123517 a55.2178188547461,55.2178188547461 0 0,0 0.9124344427891907,-0.2663646344500171 l 9.305814970572545 32.928117694603884" fill="#86ff25" stroke="none" /><path d="M 94.28887869178378 79.79150937346287 l -9.326034135474547 -32.99966210459754 a55.29216545675772,55.29216545675772 0 0,0 0.9181188001982188,-0.25095655023277935 l 8.756617446052605 33.15530519565662" fill="#85ff25" stroke="none" /><path d="M 94.63758080256005 79.69619591428918 l -8.724931620024888 -33.03533270184863 a55.16807923334204,55.16807923334204 0 0,0 0.9202327516076853,-0.23458781822172398 l 8.154989979732203 33.180623516239216" fill="#87ff25" stroke="none" /><path d="M 94.98787191387505 79.60689891045804 l -13.648141603779878 -55.53088959972118 a78.18348947881066,78.18348947881066 0 0,0 1.3096714128218823,-0.3099569096286758 l 12.690246503995462 55.75759242149073" fill="#45ffee" stroke="none" /><path d="M 95.33964822691252 79.52364482259891 l -12.643126335036994 -55.55055884063863 a77.9711613979473,77.9711613979473 0 0,0 1.3112420454231053,-0.28658672370047744 l 11.685041565460368 55.75995906243497" fill="#45ffec" stroke="none" /><path d="M 95.692805502759 79.44645832069477 l -7.031365921834534 -33.55304076225143 a55.281870589570254,55.281870589570254 0 0,0 0.9330358040206903,-0.18715820474143063 l 6.4527637083467075 33.66910292307007" fill="#85ff25" stroke="none" /><path d="M 96.04723909329186 79.375362276772 l -6.439738497123474 -33.601140233424005 a55.21267099917163,55.21267099917163 0 0,0 0.9349473897260105,-0.1708556594391112 l 5.86039598629457 33.70701137421385" fill="#86ff25" stroke="none" /><path d="M 96.40284397218896 79.31037775812273 l -5.897352871849102 -33.9195748536537 a55.42842327420359,55.42842327420359 0 0,0 0.9414142729371457,-0.15534142138338272 l 5.31260939277307 34.01606253797671" fill="#84ff25" stroke="none" /><path d="M 96.75951476605007 79.25152402106235 l -5.3145611655381675 -34.02855952759687 a55.44107175895446,55.44107175895446 0 0,0 0.9441641437753966,-0.13914525170116337 l 4.728028041334122 34.114999263459005" fill="#83ff25" stroke="none" /><path d="M 97.11714578562143 79.19881850522333 l -4.6999225566181515 -33.91220465606621 a55.23633883278303,55.23633883278303 0 0,0 0.9429244725096277,-0.12241865864531591 l 4.1154833556006665 33.988081637875666" fill="#86ff25" stroke="none" /><path d="M 97.47563105711357 79.15227682838746 l -6.906370620084822 -57.03686983387368 a78.45348097015724,78.45348097015724 0 0,0 1.3420525042879616,-0.15079523601299727 l 5.923551412287142 57.14730102335728" fill="#45fff1" stroke="none" /><path d="M 97.83486435360386 79.11191278185805 l -6.495406939188433 -62.66426165442583 a84.0,84.0 0 0,0 1.4394994916390547,-0.13669782193927782 l 5.415782320459142 62.766785020880285" fill="#4dd2ff" stroke="none" /></svg>