<?xml version="1.0" encoding="utf-8" ?>
<svg baseProfile="full" height="200mm" version="1.1" viewBox="0,0,200,200" width="200mm" xmlns="http://www.w3.org/2000/svg" xmlns:ev="http://www.w3.org/2001/xml-events" xmlns:xlink="http://www.w3.org/1999/xlink"><defs /><rect fill="#1a1a1a" height="200" width="200" x="0" y="0" /><text alignment-baseline="middle" fill="#e1ed5e" style="dominant-baseline: central; font-size:9.0px; font-family:Arial;" text-anchor="middle" x="100.0" y="100.0">2019</text><line stroke="#e1ed5e" stroke-width="0.3" x1="100.0" x2="100.0" y1="15.0" y2="10.0" /><path d="M 100.0 14.0 a86.0,86.0 0 0,1 42.46469731375804,11.215312516191453" fill="none" id="id49" stroke="none" /><text fill="#e1ed5e" style="font-size:6.75px; font-family:Arial;" text-anchor="middle"><textPath startOffset="22.20632615414155" xlink:href="#id49">January</textPath></text><path d="M 104.307194497241 79.44645832069477 l 10.671039010338419 -50.921230792102406 a73.02732761677004,73.02732761677004 0 0,0 1.228101527785064,0.26841542676882413 l -11.54598326227701 50.73000186723771" fill="#3effb3" stroke="none" /><path d="M 106.74666289553966 80.11325718540242 l 20.239988686618958 -59.66022844379275 a84.0,84.0 0 0,0 1.3652719837469054,0.4763165873111701 l -21.26394267442914 59.302991003309366" fill="#4dd2ff" stroke="none" /><line stroke="#e1ed5e" stroke-width="0.3" x1="143.23703022742887" x2="145.7803849466894" y1="26.81831364943548" y2="22.513508569990506" /><path d="M 143.74570117128098 25.957352633546492 a86.0,86.0 0 0,1 28.547481713284135,27.462654790039103" fill="none" id="id50" stroke="none" /><text fill="#e1ed5e" style="font-size:6.75px; font-family:Arial;" text-anchor="middle"><textPath startOffset="19.985693538727396" xlink:href="#id50">February</textPath></text><line stroke="#e1ed5e" stroke-width="0.3" x1="172.23445277983987" x2="176.4835382374775" y1="55.19839476539836" y2="52.563006222186495" /><path d="M 173.08426987136738 54.67131705675599 a86.0,86.0 0 0,1 12.851231095245387,41.99856678651699" fill="none" id="id51" stroke="none" /><text fill="#e1ed5e" style="font-size:6.75px; font-family:Arial;" text-anchor="middle"><textPath startOffset="22.20632615414155" xlink:href="#id51">March</textPath></text><path d="M 120.18372546131832 94.20196356495316 l 10.551935404609804 -3.0311800491658274 a31.97867903135522,31.97867903135522 0 0,0 0.14742662809748697,0.5303720208673526 l -10.602548803273653 2.849096724879523" fill="#ff3705" stroke="none" /><line stroke="#e1ed5e" stroke-width="0.3" x1="184.98032266829074" x2="189.97916517819016" y1="98.17113171792111" y2="98.06355123074" /><path d="M 185.9800911702706 98.14961562048488 a86.0,86.0 0 0,1 -9.607161424134198,41.387399972396054" fill="none" id="id52" stroke="none" /><text fill="#e1ed5e" style="font-size:6.75px; font-family:Arial;" text-anchor="middle"><textPath startOffset="21.466115282336823" xlink:href="#id52">April</textPath></text><path d="M 119.9155931802556 106.66101706037122 l 18.548904482345886 6.203911080619716 a40.558894912326394,40.558894912326394 0 0,0 -0.2271475204047396,0.6601970196936028 l -18.439366130997914 -6.522280803402619" fill="#ffb811" stroke="none" /><path d="M 119.67450827220406 107.3425965602758 l 17.45656854610071 6.5148535550392435 a39.632635408023205,39.632635408023205 0 0,0 -0.2440345939543968,0.6370973189544249 l -17.341839672552805 -6.814374440826812" fill="#ffab0f" stroke="none" /><path d="M 119.26925614724726 108.34839909993367 l 17.082556208749033 7.401012046749908 a39.6168930259914,39.6168930259914 0 0,0 -0.2764861365812619,0.6234032477823856 l -16.952628987436498 -7.693963631024981" fill="#ffab0f" stroke="none" /><path d="M 118.97047184881838 109.00673069616215 l 33.5412935506708 15.924611713368071 a58.12965972472425,58.12965972472425 0 0,0 -0.43693226103059646,0.9002098727838501 l -33.26220803302549 -16.499610542117196" fill="#62ff29" stroke="none" /><line stroke="#e1ed5e" stroke-width="0.3" x1="174.80103733775053" x2="179.2010983576182" y1="140.37084112569926" y2="142.7455964860345" /><path d="M 175.68104954172406 140.8457921977663 a86.0,86.0 0 0,1 -30.038265399797805,32.042727171017184" fill="none" id="id53" stroke="none" /><text fill="#e1ed5e" style="font-size:6.75px; font-family:Arial;" text-anchor="middle"><textPath startOffset="22.206326154141568" xlink:href="#id53">May</textPath></text><path d="M 116.498646956653 112.99209946851258 l 29.189663851307124 22.98582527433883 a58.15352795219775,58.15352795219775 0 0,0 -0.6260700486099657,0.7811186483116284 l -28.789675890642304 -23.484871756228706" fill="#62ff29" stroke="none" /><path d="M 116.27256486870786 113.27417163493432 l 28.791457595431584 23.486325162951402 a58.15582727015265,58.15582727015265 0 0,0 -0.6394482450561143,0.770256604210903 l -28.382913350481928 -23.97844302427608" fill="#61ff29" stroke="none" /><path d="M 116.0416608686014 113.55231037782055 l 28.37296182488868 23.97003577987182 a58.14279981375833,58.14279981375833 0 0,0 -0.6524660138399466,0.758965378467524 l -27.956153301477954 -24.454878257500877" fill="#62ff29" stroke="none" /><line stroke="#e1ed5e" stroke-width="0.3" x1="143.8653032363475" x2="146.44561519142675" y1="172.8068346515853" y2="177.08958963109032" /><path d="M 144.38136562736335 173.6633856474863 a86.0,86.0 0 0,1 -40.68145358897372,12.25698825130547" fill="none" id="id54" stroke="none" /><text fill="#e1ed5e" style="font-size:6.75px; font-family:Arial;" text-anchor="middle"><textPath startOffset="21.466115282336833" xlink:href="#id54">June</textPath></text><line stroke="#e1ed5e" stroke-width="0.3" x1="102.19456741930631" x2="102.32365962044197" y1="184.97166512339345" y2="189.96999836594603" /><path d="M 102.22038585953345 185.97133177190398 a86.0,86.0 0 0,1 -42.740103519485714,-10.115201625700543" fill="none" id="id55" stroke="none" /><text fill="#e1ed5e" style="font-size:6.75px; font-family:Arial;" text-anchor="middle"><textPath startOffset="22.20632615414155" xlink:href="#id55">July</textPath></text><path d="M 90.10565033884886 118.52300852407294 l -7.026859789980987 13.154839705972162 a35.9139721804043,35.9139721804043 0 0,0 -0.5427750240592659,-0.2959642199170795 l 7.252257625908894 -13.031934834295317" fill="#ff740a" stroke="none" /><line stroke="#e1ed5e" stroke-width="0.3" x1="58.666819895761336" x2="56.23545636021788" y1="174.27360380694188" y2="178.64263932499728" /><path d="M 58.180547188652646 175.14741091055294 a86.0,86.0 0 0,1 -31.652253787137756,-30.449443065178592" fill="none" id="id56" stroke="none" /><text fill="#e1ed5e" style="font-size:6.75px; font-family:Arial;" text-anchor="middle"><textPath startOffset="22.20632615414155" xlink:href="#id56">August</textPath></text><path d="M 86.24171649860922 115.8653595955263 l -9.705904578131932 11.19236031997465 a35.81463847726111,35.81463847726111 0 0,0 -0.462277697007028,-0.4079063195025053 l 9.897124628045548 -11.023630858699857" fill="#ff720a" stroke="none" /><path d="M 85.18274418774928 114.88116024355367 l -27.92755480442938 28.048001837947087 a60.58078731475525,60.58078731475525 0 0,0 -0.7326218514332821,-0.7421420675645882 l 28.406217280918195 -27.563119276401835" fill="#46ff2c" stroke="none" /><path d="M 84.9287848128048 114.62390073753433 l -18.514182623907892 17.96468072187345 a46.797377999910466,46.797377999910466 0 0,0 -0.5559828201723889,-0.5829457641607263 l 18.82067199545924 -17.643327841130223" fill="#efff19" stroke="none" /><line stroke="#e1ed5e" stroke-width="0.3" x1="26.63291911575756" x2="22.317208475507996" y1="142.92168965132927" y2="145.44649492493687" /><path d="M 25.769776987707644 143.4266507060508 a86.0,86.0 0 0,1 -11.730757126820373,-40.83630448921669" fill="none" id="id57" stroke="none" /><text fill="#e1ed5e" style="font-size:6.75px; font-family:Arial;" text-anchor="middle"><textPath startOffset="21.46611528233685" xlink:href="#id57">September</textPath></text><path d="M 81.87401531095188 110.60418214915194 l -32.04298118509587 18.745994489000577 a58.12364411813646,58.12364411813646 0 0,0 -0.4977819700474507,-0.867924822944864 l 32.3609151512957 -18.191649820197405" fill="#62ff29" stroke="none" /><path d="M 81.69416730710424 110.29060199501025 l -6.591551337622816 3.7054327155234033 a28.561665203233233,28.561665203233233 0 0,0 -0.23722991413293432,-0.43064120223784236 l 6.654357661207267 -3.5914209948877387" fill="#ff0000" stroke="none" /><path d="M 80.87730276802145 108.67885076344099 l -25.680189968136755 11.654973856803231 a49.201251255970156,49.201251255970156 0 0,0 -0.3433753339970828,-0.7742207297226751 l 25.877006386865116 -11.21120479058786" fill="#cfff1d" stroke="none" /><path d="M 80.73074385275274 108.34839909993369 l -10.295063146268863 4.460332835232438 a32.21975464021901,32.21975464021901 0 0,0 -0.21610099177616543,-0.5107989093578521 l 10.370315119237334 -4.2824594002084275" fill="#ff3b05" stroke="none" /><path d="M 79.4281124754447 104.21870165774334 l -36.33059204266184 7.4503581012791775 a58.08665196546623,58.08665196546623 0 0,0 -0.19243296525983913,-0.9812115440633498 l 36.45345494089735 -6.8238828301478724" fill="#62ff29" stroke="none" /><path d="M 79.35854240842038 103.8639653848113 l -36.490295982937084 6.830779267114609 a58.124132936923885,58.124132936923885 0 0,0 -0.17562776289513143,-0.9850137639114873 l 36.6024701881714 -6.201646752469909" fill="#62ff29" stroke="none" /><path d="M 79.29508885075956 103.50808413554451 l -36.648579366204395 6.209459144167444 a58.170899268434,58.170899268434 0 0,0 -0.15877399491870056,-0.9886858179203779 l 36.75003511548439 -5.577694096553852" fill="#61ff29" stroke="none" /><path d="M 79.18660465613746 102.79330883721812 l -36.71334031514637 4.92719694465109 a58.04249757814841,58.04249757814841 0 0,0 -0.12437260907429291,-0.9913720656237104 l 36.79271443346751 -4.294507124739971" fill="#63ff29" stroke="none" /><path d="M 79.07016306316243 101.71520430193888 l -36.963070922482785 3.0291310176205237 a58.086982173566014,58.086982173566014 0 0,0 -0.07308847456328667,-0.9972341663525872 l 37.009735955710404 -2.392423714771176" fill="#62ff29" stroke="none" /><path d="M 79.04373962182676 101.35467743843564 l -37.075425783062286 2.3966701082327218 a58.152809107832695,58.152809107832695 0 0,0 -0.055975260867146895,-0.9994758848363327 l 37.111187394816966 -1.7581225070609514" fill="#62ff29" stroke="none" /><path d="M 79.0095281055655 100.63252640178507 l -37.10700362046299 1.1181816015913613 a58.12384742700022,58.12384742700022 0 0,0 -0.021527792466352304,-1.0003119240751712 l 37.12075347561435 -0.4792798617260611" fill="#62ff29" stroke="none" /><line stroke="#e1ed5e" stroke-width="0.3" x1="15.007084014347285" x2="10.007500721073583" y1="101.09737516637583" y2="101.16192664675087" /><path d="M 14.007167355692545 101.11028546245083 a86.0,86.0 0 0,1 10.666146001902534,-42.60595125391555" fill="none" id="id58" stroke="none" /><text fill="#e1ed5e" style="font-size:6.75px; font-family:Arial;" text-anchor="middle"><textPath startOffset="22.20632615414155" xlink:href="#id58">October</textPath></text><path d="M 79.3925641242962 95.95851677861259 l -36.45459078073816 -7.149391019413554 a58.149037416056295,58.149037416056295 0 0,0 0.2010868590009206,-0.9805709390328902 l 36.326124625822246 7.775837614609847" fill="#62ff29" stroke="none" /><line stroke="#e1ed5e" stroke-width="0.3" x1="26.266209847984243" x2="21.928928074336255" y1="57.711370442889674" y2="55.22380399835377" /><path d="M 25.398753493254645 57.213857153982495 a86.0,86.0 0 0,1 29.58750427330803,-30.492523968695096" fill="none" id="id59" stroke="none" /><text fill="#e1ed5e" style="font-size:6.75px; font-family:Arial;" text-anchor="middle"><textPath startOffset="21.46611528233685" xlink:href="#id59">November</textPath></text><path d="M 83.6137871275137 86.86637796730984 l -28.95786116711625 -23.20985369856935 a58.11138682511033,58.11138682511033 0 0,0 0.6323114055747507,-0.7751390178924634 l 28.554051269465106 23.704876886069897" fill="#62ff29" stroke="none" /><path d="M 85.05521093208273 85.24692304244772 l -26.408933081860578 -26.070158658842455 a58.10909482888808,58.10909482888808 0 0,0 0.7088318942782778,-0.7057879448582127 l 25.956265387414987 26.52088245435078" fill="#62ff29" stroke="none" /><path d="M 85.31137513191541 84.99185889309783 l -25.937410971141272 -26.50161790491436 a58.08213908964742,58.08213908964742 0 0,0 0.720541451413656,-0.6931603053756858 l 25.47738627611519 26.94416129705236" fill="#62ff29" stroke="none" /><line stroke="#e1ed5e" stroke-width="0.3" x1="56.762969772571076" x2="54.21961505331055" y1="26.818313649435495" y2="22.513508569990535" /><path d="M 56.25429882871897 25.957352633546506 a86.0,86.0 0 0,1 42.265352541879196,-11.944610805530505" fill="none" id="id60" stroke="none" /><text fill="#e1ed5e" style="font-size:6.75px; font-family:Arial;" text-anchor="middle"><textPath startOffset="22.20632615414155" xlink:href="#id60">December</textPath></text></svg>