<?xml version="1.0" encoding="utf-8" ?>
<svg baseProfile="full" height="200mm" version="1.1" viewBox="0,0,200,200" width="200mm" xmlns="http://www.w3.org/2000/svg" xmlns:ev="http://www.w3.org/2001/xml-events" xmlns:xlink="http://www.w3.org/1999/xlink"><defs /><rect fill="#1a1a1a" height="200" width="200" x="0" y="0" /><text alignment-baseline="middle" fill="#e1ed5e" style="dominant-baseline: central; font-size:9.0px; font-family:Arial;" text-anchor="middle" x="100.0" y="100.0">2015</text><line stroke="#e1ed5e" stroke-width="0.3" x1="100.0" x2="100.0" y1="15.0" y2="10.0" /><path d="M 100.0 14.0 a86.0,86.0 0 0,1 42.46469731375804,11.215312516191453" fill="none" id="id1" stroke="none" /><text fill="#e1ed5e" style="font-size:6.75px; font-family:Arial;" text-anchor="middle"><textPath startOffset="22.20632615414155" xlink:href="#id1">January</textPath></text><line stroke="#e1ed5e" stroke-width="0.3" x1="143.23703022742887" x2="145.7803849466894" y1="26.81831364943548" y2="22.513508569990506" /><path d="M 143.74570117128098 25.957352633546492 a86.0,86.0 0 0,1 28.547481713284135,27.462654790039103" fill="none" id="id2" stroke="none" /><text fill="#e1ed5e" style="font-size:6.75px; font-family:Arial;" text-anchor="middle"><textPath startOffset="19.985693538727396" xlink:href="#id2">February</textPath></text><line stroke="#e1ed5e" stroke-width="0.3" x1="172.23445277983987" x2="176.4835382374775" y1="55.19839476539836" y2="52.563006222186495" /><path d="M 173.08426987136738 54.67131705675599 a86.0,86.0 0 0,1 12.851231095245387,41.99856678651699" fill="none" id="id3" stroke="none" /><text fill="#e1ed5e" style="font-size:6.75px; font-family:Arial;" text-anchor="middle"><textPath startOffset="22.20632615414155" xlink:href="#id3">March</textPath></text><path d="M 118.21658344932153 89.55222093294921 l 16.725864672781313 -9.592805329976263 a40.281505728314244,40.281505728314244 0 0,0 0.3397886160479027,0.6044460333165655 l -16.88851093012165 9.303475786724904" fill="#ff2103" stroke="none" /><path d="M 119.34039704204932 91.81776055985345 l 18.04259606861822 -7.633185649410957 a40.59083449099836,40.59083449099836 0 0,0 0.2666978509975957,0.6458300004744623 l -18.171315606502013 7.321481078483192" fill="#ff2703" stroke="none" /><path d="M 119.47837535516314 92.15188598940014 l 19.414616065448392 -7.822424487434178 a41.9312599198036,41.9312599198036 0 0,0 0.2639801439516652,0.6718006726662588 l -19.54638975928176 7.487074809872135" fill="#ff4106" stroke="none" /><path d="M 119.7369772167798 92.82701384747503 l 19.478555159586396 -7.079068131675281 a41.72504081342062,41.72504081342062 0 0,0 0.2395154820544197,0.6771425212695299 l -19.597523722450628 6.742727983979137" fill="#ff3d05" stroke="none" /><path d="M 119.85752413597 93.16781622104841 l 49.04256165663296 -16.873593703544216 a72.86415928477905,72.86415928477905 0 0,0 0.39784769955417015,1.1895139826559555 l -49.3257466499589 16.026906617965945" fill="#3aff94" stroke="none" /><path d="M 119.97218684219823 93.5106431181261 l 48.73736386819932 -15.835729463247947 a72.24549701636661,72.24549701636661 0 0,0 0.3741096010938234,1.1860296701349058 l -49.00272895306134 14.994449626686624" fill="#39ff8a" stroke="none" /><line stroke="#e1ed5e" stroke-width="0.3" x1="184.98032266829074" x2="189.97916517819016" y1="98.17113171792111" y2="98.06355123074" /><path d="M 185.9800911702706 98.14961562048488 a86.0,86.0 0 0,1 -9.607161424134198,41.387399972396054" fill="none" id="id4" stroke="none" /><text fill="#e1ed5e" style="font-size:6.75px; font-family:Arial;" text-anchor="middle"><textPath startOffset="21.466115282336823" xlink:href="#id4">April</textPath></text><path d="M 120.9904718944345 100.63252640178507 l 53.0773808618911 1.5994325854889129 a74.10147402618658,74.10147402618658 0 0,0 -0.0493934566165989,1.274625640383773 l -53.041985272423304 -2.512835472886692" fill="#3cffa6" stroke="none" /><path d="M 120.9764740272857 100.99374915477107 l 20.392840749699758 0.9660998427111407 a41.41571215384615,41.41571215384615 0 0,0 -0.039864889200996866,0.7118143764016114 l -20.373189509611233 -1.3169859354481754" fill="#ff3705" stroke="none" /><path d="M 120.95626037817324 101.35467743843564 l 20.681873887348083 1.3369402476475598 a41.72504081342062,41.72504081342062 0 0,0 -0.052500912769596945,0.7163332425717517 l -20.65579641591415 -1.6927466267160818" fill="#ff3d05" stroke="none" /><path d="M 120.13307415673323 105.97154293290107 l 49.327679235073056 14.630768855242081 a72.45171849427169,72.45171849427169 0 0,0 -0.364926290600773,1.192600232177191 l -49.068526171966155 -15.47769605997133" fill="#39ff8d" stroke="none" /><path d="M 119.67450827220406 107.3425965602758 l 38.44740241736768 14.34870751713469 a62.03764320785597,62.03764320785597 0 0,0 -0.38199153082441945,0.9972593483898123 l -38.19471660694975 -15.008390432357645" fill="#6dff28" stroke="none" /><path d="M 119.54520255179757 107.68017299344265 l 38.48261840020397 15.121519757646293 a62.346974238952534,62.346974238952534 0 0,0 -0.40109110612591364,0.9954752321623145 l -38.21662467982066 -15.781694357651421" fill="#69ff28" stroke="none" /><path d="M 119.41010516605496 108.01547362559984 l 47.365739447770785 19.559854624827096 a72.2454991816694,72.2454991816694 0 0,0 -0.48455750823857063,1.145350813502004 l -47.02203095833991 -20.372279963995265" fill="#39ff8a" stroke="none" /><path d="M 119.26925614724726 108.34839909993367 l 48.72504213992967 21.110109017017216 a74.10147299509,74.10147299509 0 0,0 -0.5171538810464412,1.1660454771223654 l -48.35444717415195 -21.94570283063227" fill="#3cffa6" stroke="none" /><path d="M 119.12269723197855 108.67885076344098 l 38.21409896498794 17.343498040740567 a62.96563217675941,62.96563217675941 0 0,0 -0.45642702304902116,0.9831032019934177 l -37.90989732509909 -17.998721310012815" fill="#60ff29" stroke="none" /><line stroke="#e1ed5e" stroke-width="0.3" x1="174.80103733775053" x2="179.2010983576182" y1="140.37084112569926" y2="142.7455964860345" /><path d="M 175.68104954172406 140.8457921977663 a86.0,86.0 0 0,1 -30.038265399797805,32.042727171017184" fill="none" id="id5" stroke="none" /><text fill="#e1ed5e" style="font-size:6.75px; font-family:Arial;" text-anchor="middle"><textPath startOffset="22.206326154141568" xlink:href="#id5">May</textPath></text><path d="M 115.32070863581623 114.36230785411682 l 34.97935932399943 32.79119387314725 a68.94599018003274,68.94599018003274 0 0,0 -0.8191225170765912,0.8588466843461386 l -34.40973025554388 -33.3884476740759" fill="#33ff57" stroke="none" /><path d="M 114.81725581225074 114.88116024355365 l 12.440674683608231 12.494329304325735 a38.63175122749591,38.63175122749591 0 0,0 -0.47526260806809706,0.46514449151395926 l -12.22376212316434 -12.706623898762267" fill="#ff0000" stroke="none" /><path d="M 114.0293411484842 115.62618273729858 l 41.39918509118988 46.11130519697108 a82.96890343698854,82.96890343698854 0 0,0 -1.0709217022643163,0.9449638883170127 l -40.59932103601898 -46.81709222706038" fill="#4bdfff" stroke="none" /><path d="M 112.92097659922987 116.55440617244103 l 25.44015650430792 32.594028835860776 a62.346974238952534,62.346974238952534 0 0,0 -0.851693132119605,0.6530419756510436 l -24.875334643694824 -33.02711015333919" fill="#69ff28" stroke="none" /><path d="M 112.04921762599082 117.19931262002967 l 36.14765287797247 51.597937860089026 a84.0,84.0 0 0,0 -1.1913724615084669,0.8194368425396235 l -35.25412353184112 -52.21251549199374" fill="#4dd2ff" stroke="none" /><line stroke="#e1ed5e" stroke-width="0.3" x1="143.8653032363475" x2="146.44561519142675" y1="172.8068346515853" y2="177.08958963109032" /><path d="M 144.38136562736335 173.6633856474863 a86.0,86.0 0 0,1 -40.68145358897372,12.25698825130547" fill="none" id="id6" stroke="none" /><text fill="#e1ed5e" style="font-size:6.75px; font-family:Arial;" text-anchor="middle"><textPath startOffset="21.466115282336833" xlink:href="#id6">June</textPath></text><path d="M 110.5260780823613 118.17145234162733 l 20.62146557215461 35.599391903319 a62.14075286415712,62.14075286415712 0 0,0 -0.9301915374901344,0.528187031494782 l -20.005625267743277 -35.949082100608415" fill="#6cff28" stroke="none" /><path d="M 109.89434966115114 118.52300852407294 l 19.529600149506177 36.560962815109576 a62.45008183306056,62.45008183306056 0 0,0 -0.9525394928140057,0.4983236428436164 l -18.897369754165677 -36.89171587689791" fill="#67ff28" stroke="none" /><path d="M 101.98527174616119 120.90594882070398 l 4.9030688460838565 51.631876874700986 a72.86415711947626,72.86415711947626 0 0,0 -1.2496400104548797,0.10782419831298455 l -4.013584517887435 -51.70862532529263" fill="#3aff94" stroke="none" /><path d="M 101.62511606390274 120.93702456842531 l 3.9976259313351994 51.503024429367024 a72.65793780687397,72.65793780687397 0 0,0 -1.2477694332460576,0.08605348558522613 l -3.1104937373102115 -51.564206259468534" fill="#3aff90" stroke="none" /><line stroke="#e1ed5e" stroke-width="0.3" x1="102.19456741930631" x2="102.32365962044197" y1="184.97166512339345" y2="189.96999836594603" /><path d="M 102.22038585953345 185.97133177190398 a86.0,86.0 0 0,1 -42.740103519485714,-10.115201625700543" fill="none" id="id7" stroke="none" /><text fill="#e1ed5e" style="font-size:6.75px; font-family:Arial;" text-anchor="middle"><textPath startOffset="22.20632615414155" xlink:href="#id7">July</textPath></text><path d="M 99.09653310690486 120.98055641714683 l -0.8872015316809858 20.602837725512433 a41.62193126022913,41.62193126022913 0 0,0 -0.7155244666960145,-0.036984441916486914 l 1.2417140667904893 -20.584513476833745" fill="#ff3b05" stroke="none" /><path d="M 93.76903079525671 120.05430185196036 l -12.115206898911671 38.99265237336974 a61.831423895253685,61.831423895253685 0 0,0 -1.0136780690366585,-0.3245477068071815 l 12.78460631303927 -38.77833181990285" fill="#70ff27" stroke="none" /><path d="M 93.42475214034765 119.94407469862007 l -12.752321953662907 38.680406739549554 a61.728314238952535,61.728314238952535 0 0,0 -1.006260490416927,-0.34137819235838135 l 13.416252177017059 -38.455165560293054" fill="#71ff27" stroke="none" /><path d="M 92.7421414339146 119.70592522655815 l -14.218750742396438 38.60555236692325 a62.14075286415712,62.14075286415712 0 0,0 -1.0005542403689172,-0.37832399968446345 l 14.881175203525638 -38.355080117132154" fill="#6cff28" stroke="none" /><line stroke="#e1ed5e" stroke-width="0.3" x1="58.666819895761336" x2="56.23545636021788" y1="174.27360380694188" y2="178.64263932499728" /><path d="M 58.180547188652646 175.14741091055294 a86.0,86.0 0 0,1 -31.652253787137756,-30.449443065178592" fill="none" id="id8" stroke="none" /><text fill="#e1ed5e" style="font-size:6.75px; font-family:Arial;" text-anchor="middle"><textPath startOffset="22.20632615414155" xlink:href="#id8">August</textPath></text><path d="M 89.1626897886671 117.98757091392108 l -20.858718180896066 34.62092208636855 a61.4189852700491,61.4189852700491 0 0,0 -0.9008726182012509,-0.5533895413710119 l 21.451569999029626 -34.25674407816916" fill="#76ff27" stroke="none" /><path d="M 88.8546689885994 117.79835938074946 l -11.00950948389519 17.581461349124304 a41.74408547626841,41.74408547626841 0 0,0 -0.605722976263224,-0.3866010622419048 l 11.310514262205338 -17.389345858058597" fill="#ff3d05" stroke="none" /><line stroke="#e1ed5e" stroke-width="0.3" x1="26.63291911575756" x2="22.317208475507996" y1="142.92168965132927" y2="145.44649492493687" /><path d="M 25.769776987707644 143.4266507060508 a86.0,86.0 0 0,1 -11.730757126820373,-40.83630448921669" fill="none" id="id9" stroke="none" /><text fill="#e1ed5e" style="font-size:6.75px; font-family:Arial;" text-anchor="middle"><textPath startOffset="21.46611528233685" xlink:href="#id9">September</textPath></text><line stroke="#e1ed5e" stroke-width="0.3" x1="15.007084014347285" x2="10.007500721073583" y1="101.09737516637583" y2="101.16192664675087" /><path d="M 14.007167355692545 101.11028546245083 a86.0,86.0 0 0,1 10.666146001902534,-42.60595125391555" fill="none" id="id10" stroke="none" /><text fill="#e1ed5e" style="font-size:6.75px; font-family:Arial;" text-anchor="middle"><textPath startOffset="22.20632615414155" xlink:href="#id10">October</textPath></text><path d="M 80.52162464483688 92.15188598940014 l -49.16549640970691 -19.80947662089481 a74.00623926677576,74.00623926677576 0 0,0 0.4862502882821908,-1.177493642102213 l 48.81722443453852 20.652844833450335" fill="#3cffa5" stroke="none" /><line stroke="#e1ed5e" stroke-width="0.3" x1="26.266209847984243" x2="21.928928074336255" y1="57.711370442889674" y2="55.22380399835377" /><path d="M 25.398753493254645 57.213857153982495 a86.0,86.0 0 0,1 29.58750427330803,-30.492523968695096" fill="none" id="id11" stroke="none" /><text fill="#e1ed5e" style="font-size:6.75px; font-family:Arial;" text-anchor="middle"><textPath startOffset="21.46611528233685" xlink:href="#id11">November</textPath></text><line stroke="#e1ed5e" stroke-width="0.3" x1="56.762969772571076" x2="54.21961505331055" y1="26.818313649435495" y2="22.513508569990535" /><path d="M 56.25429882871897 25.957352633546506 a86.0,86.0 0 0,1 42.265352541879196,-11.944610805530505" fill="none" id="id12" stroke="none" /><text fill="#e1ed5e" style="font-size:6.75px; font-family:Arial;" text-anchor="middle"><textPath startOffset="22.20632615414155" xlink:href="#id12">December</textPath></text></svg>