<?xml version="1.0" encoding="utf-8" ?>
<svg baseProfile="full" height="200mm" version="1.1" viewBox="0,0,200,200" width="200mm" xmlns="http://www.w3.org/2000/svg" xmlns:ev="http://www.w3.org/2001/xml-events" xmlns:xlink="http://www.w3.org/1999/xlink"><defs /><rect fill="#1a1a1a" height="200" width="200" x="0" y="0" /><text alignment-baseline="middle" fill="#e1ed5e" style="dominant-baseline: central; font-size:9.0px; font-family:Arial;" text-anchor="middle" x="100.0" y="100.0">2022</text><line stroke="#e1ed5e" stroke-width="0.3" x1="100.0" x2="100.0" y1="15.0" y2="10.0" /><path d="M 100.0 14.0 a86.0,86.0 0 0,1 42.46469731375804,11.215312516191453" fill="none" id="id85" stroke="none" /><text fill="#e1ed5e" style="font-size:6.75px; font-family:Arial;" text-anchor="middle"><textPath startOffset="22.20632615414155" xlink:href="#id85">January</textPath></text><path d="M 100.0 79.0 l 0.0 -39.75428047689395 a60.75428047689395,60.75428047689395 0 0,0 1.0457850678402496,0.009001402245030125 l -0.6843045885677211 39.748390451257485" fill="#b4ff20" stroke="none" /><path d="M 100.36148047927253 79.00311137660856 l 0.679743536946533 -39.48345804581098 a60.48930881303617,60.48930881303617 0 0,0 1.0409154790716009,0.02688377582462206 l -1.3592856512130016 39.46590747784399" fill="#b8ff1f" stroke="none" /><path d="M 102.16513564639614 79.11191278185805 l 2.438334729764936 -23.523767939034723 a44.64980199291182,44.64980199291182 0 0,0 0.7637950265500834,0.08582127072239776 l -2.8428964598247446 23.478310714841726" fill="#ff0300" stroke="none" /><path d="M 102.52436894288641 79.15227682838746 l 4.7455963351208235 -39.19192515722133 a60.478192487817246,60.478192487817246 0 0,0 1.0324067263499956,0.13403602335167267 l -5.4195177899786655 39.104430810705516" fill="#b8ff1f" stroke="none" /><path d="M 102.88285421437855 79.19881850522331 l 5.4815554577794945 -39.55206246027053 a60.930102618173336,60.930102618173336 0 0,0 1.037642605805903,0.15292154707694866 l -6.1615670440140535 39.45184642903261" fill="#b0ff20" stroke="none" /><path d="M 103.2404852339499 79.25152402106235 l 3.64719889191145 -23.352619480074626 a44.635712308672254,44.635712308672254 0 0,0 0.7581073782709958,0.12509421312938837 l -4.048635476321321 23.286379004005614" fill="#ff0300" stroke="none" /><path d="M 103.59715602781102 79.31037775812273 l 4.06106382203537 -23.357862636054683 a44.708268310685284,44.708268310685284 0 0,0 0.7570703970628693,0.1383497759910435 l -4.462529340201141 23.284497378712903" fill="#ff0400" stroke="none" /><path d="M 103.95276090670814 79.375362276772 l 4.452401782659744 -23.231654009168853 a44.65446320752096,44.65446320752096 0 0,0 0.7536686537123715,0.15117884178812357 l -4.8516368458392405 23.151571211303523" fill="#ff0300" stroke="none" /><path d="M 104.307194497241 79.44645832069477 l 4.859495168124456 -23.189070412865473 a44.69277695631852,44.69277695631852 0 0,0 0.751599017138449,0.16427043398284344 l -5.257936909416433 23.10198648078676" fill="#ff0400" stroke="none" /><path d="M 104.66035177308747 79.52364482259891 l 5.2526888390642865 -23.078927845353466 a44.669128639032365,44.669128639032365 0 0,0 0.7482638752016931,0.17708988382404006 l -5.6491764012285035 22.98509204938856" fill="#ff0300" stroke="none" /><path d="M 105.01212808612495 79.60689891045804 l 10.393385188603983 -42.28809622812683 a64.54659043229455,64.54659043229455 0 0,0 1.076671280672428,0.2744674825294821 l -11.119765357961436 42.10292574942848" fill="#73ff27" stroke="none" /><path d="M 105.36241919743992 79.69619591428918 l 6.038329439243929 -22.86301264882832 a44.64696111125748,44.64696111125748 0 0,0 0.7413566466305895,0.20264077643370934 l -6.430983975098229 22.755685331568316" fill="#ff0300" stroke="none" /><path d="M 105.71112130821622 79.79150937346287 l 6.464072384480049 -22.8727668598275 a44.768628391554714,44.768628391554714 0 0,0 0.7397691424273428,0.21595889848009847 l -6.85683174463082 22.7581096324287" fill="#ff0600" stroke="none" /><path d="M 106.0581310904928 79.89281104454417 l 6.810003528530606 -22.602684836314335 a44.60630233366406,44.60630233366406 0 0,0 0.7332737159461361,0.227831712938015 l -7.19806261718746 22.4821129884938" fill="#ff0200" stroke="none" /><path d="M 106.40334571778207 80.00007090966166 l 7.20326348367765 -22.498357146719282 a44.62335876027409,44.62335876027409 0 0,0 0.7295221710305426,0.24051198995806713 l -7.58946847695061 22.371031432501976" fill="#ff0200" stroke="none" /><path d="M 107.4271985657038 80.35727306442388 l 13.923018020624182 -36.82223366978349 a60.36657621936105,60.36657621936105 0 0,0 0.9687882122502585,0.3758747753251842 l -14.554789397874108 36.577116190567764" fill="#baff1f" stroke="none" /><path d="M 107.76421540070413 80.48803036053334 l 17.462896828459485 -43.88537606815221 a68.2321818073712,68.2321818073712 0 0,0 1.087543422100234,0.44363626846377935 l -18.215724120148106 43.57827891350485" fill="#38ff2e" stroke="none" /><path d="M 108.43124777332544 80.76684994638697 l 9.475704168935964 -21.615737675434282 a44.60146361458076,44.60146361458076 0 0,0 0.7004933448877148,0.3142909449602199 l -9.846379632290459 21.44942639995753" fill="#ff0200" stroke="none" /><line stroke="#e1ed5e" stroke-width="0.3" x1="143.23703022742887" x2="145.7803849466894" y1="26.81831364943548" y2="22.513508569990506" /><path d="M 143.74570117128098 25.957352633546492 a86.0,86.0 0 0,1 28.547481713284135,27.462654790039103" fill="none" id="id86" stroke="none" /><text fill="#e1ed5e" style="font-size:6.75px; font-family:Arial;" text-anchor="middle"><textPath startOffset="19.985693538727396" xlink:href="#id86">February</textPath></text><path d="M 112.19680574252982 82.90503203632743 l 13.792585429975 -19.331602965477277 a44.74755326466305,44.74755326466305 0 0,0 0.6231729301885248,0.45276163608367637 l -14.123303676517313 19.091322094576924" fill="#ff0500" stroke="none" /><path d="M 112.48926042617603 83.11751280151076 l 14.041598487374195 -18.98087625849941 a44.61017051232574,44.61017051232574 0 0,0 0.6133980150918298,0.4619986678926801 l -14.366242656224408 18.73636100110088" fill="#ff0200" stroke="none" /><path d="M 112.77801427241765 83.33499621200491 l 14.337829138280268 -18.69930427428289 a44.563474377534675,44.563474377534675 0 0,0 0.6047209250754406,0.47199427394575444 l -14.65758261851514 18.449731611113915" fill="#ff0100" stroke="none" /><path d="M 113.06298171725822 83.55741782278167 l 14.725979939846631 -18.53582440378841 a44.67342965260512,44.67342965260512 0 0,0 0.5979785357055041,0.483523722587475 l -15.042861874116626 18.279594583936806" fill="#ff0400" stroke="none" /><path d="M 113.34407831869373 83.78471172551755 l 15.221068802859186 -18.49614582509841 a44.95387955811498,44.95387955811498 0 0,0 0.5932680430466272,0.49684492457600615 l -15.53719438286493 18.231399743128584" fill="#ff0a01" stroke="none" /><path d="M 113.89432698308785 84.25364557470407 l 26.08044356643361 -29.556804620033926 a60.41819676201319,60.41819676201319 0 0,0 0.7738967180116705,0.6948121145903718 l -26.58535127204127 29.103493496674258" fill="#baff1f" stroke="none" /><path d="M 114.68862486808459 84.99185889309783 l 16.449740781581887 -16.807565925273554 a44.517828218474065,44.517828218474065 0 0,0 0.5430416116130475,0.5407096183547252 l -16.736618193362258 16.521920456268713" fill="#ff0000" stroke="none" /><path d="M 114.94478906791727 85.2469230424477 l 16.822002819568134 -16.606209766454516 a44.63780830933882,44.63780830933882 0 0,0 0.5350919781633755,0.551459319410148 l -17.105359061434616 16.314186251494252" fill="#ff0300" stroke="none" /><path d="M 115.19652480421416 85.50635884689758 l 17.105549504378075 -16.31436788589542 a44.63807148146957,44.63807148146957 0 0,0 0.5255233311636965,0.5605916486308115 l -17.383840157512235 16.017506820386554" fill="#ff0300" stroke="none" /><path d="M 115.4437574822437 85.77008943001954 l 17.39759943249972 -16.03018464524911 a44.65678096813882,44.65678096813882 0 0,0 0.516011994835032,0.5697933328536688 l -17.67095506795079 15.728338525125894" fill="#ff0300" stroke="none" /><path d="M 115.68641384162765 86.03803664274999 l 29.439952666323954 -26.20353794795328 a60.41238655531053,60.41238655531053 0 0,0 0.6846971209925771,0.7827271711597229 l -29.88664165089438 25.692895220590607" fill="#baff1f" stroke="none" /><path d="M 115.9244219780498 86.31012108654704 l 30.071457677722027 -25.851777535567155 a60.656108843549966,60.656108843549966 0 0,0 0.6738298295414483,0.7976019813080536 l -30.51199812075059 25.330316604629996" fill="#b5ff1f" stroke="none" /><path d="M 116.15771136456269 86.58626213691792 l 18.18665057219698 -15.098113704268684 a44.636990004275475,44.636990004275475 0 0,0 0.48569616786415293,0.5954060724401203 l -18.443845232137544 14.782823462220463" fill="#ff0300" stroke="none" /><path d="M 116.60985879189232 87.15038557335679 l 18.715703225654917 -14.47872454463834 a44.66243883606047,44.66243883606047 0 0,0 0.4651785686531126,0.6121204687285892 l -18.96215773453214 14.154419300028717" fill="#ff0300" stroke="none" /><path d="M 116.82858285166822 87.43820079747576 l 18.85212739143557 -14.072286473495021 a44.525134511305694,44.525134511305694 0 0,0 0.4531755203774215,0.6181309005059097 l -19.091565524326615 13.745693129317617" fill="#ff0000" stroke="none" /><path d="M 117.04232023915458 87.72973835380427 l 19.23902523640076 -13.851862314266121 a44.706838288144866,44.706838288144866 0 0,0 0.44427395043830537,0.6283939960291574 l -19.47461180664295 13.518641817905172" fill="#ff0400" stroke="none" /><path d="M 117.2510076193507 88.02491185347247 l 32.42778501419979 -22.510313166060907 a60.47499765372122,60.47499765372122 0 0,0 0.5862490457637329,0.8602481353255779 l -32.81045852563226 21.948787007464922" fill="#b9ff1f" stroke="none" /><path d="M 117.45458315368197 88.32363383020206 l 32.79871580756525 -21.94093163362002 a60.460869726561,60.460869726561 0 0,0 0.5712209515683753,0.8700086984555164 l -33.171533394491554 21.37310487118683" fill="#b9ff1f" stroke="none" /><path d="M 117.65298651832404 88.62581576622439 l 19.927093911423 -12.839438650055222 a44.705279087224504,44.705279087224504 0 0,0 0.41122982008450315,0.6504668183187787 l -20.145151327753457 12.494524184022238" fill="#ff0400" stroke="none" /><line stroke="#e1ed5e" stroke-width="0.3" x1="172.23445277983987" x2="176.4835382374775" y1="55.19839476539836" y2="52.563006222186495" /><path d="M 173.08426987136738 54.67131705675599 a86.0,86.0 0 0,1 12.851231095245387,41.99856678651699" fill="none" id="id87" stroke="none" /><text fill="#e1ed5e" style="font-size:6.75px; font-family:Arial;" text-anchor="middle"><textPath startOffset="22.20632615414155" xlink:href="#id87">March</textPath></text><path d="M 117.84615892207809 88.93136811851018 l 20.205602902486095 -12.532017755064247 a44.776413894155695,44.776413894155695 0 0,0 0.40060860857662256,0.6584952195587371 l -20.418327309348943 12.182354762298429" fill="#ff0601" stroke="none" /><path d="M 118.03404312379186 89.2402003453031 l 20.304871512734596 -12.114662696084842 a44.64429866561008,44.64429866561008 0 0,0 0.3880659434030665,0.6633304906996126 l -20.51039713060799 11.763352793031334" fill="#ff0300" stroke="none" /><path d="M 118.3937258080291 89.86733742301442 l 20.733259178594288 -11.421455422923684 a44.671030398877804,44.671030398877804 0 0,0 0.36522162471681285,0.6767002030484215 l -20.926788902529566 11.062874236542804" fill="#ff0400" stroke="none" /><path d="M 118.56541770881063 90.18545643968196 l 34.93056160972014 -18.465920017639842 a60.51119254677497,60.51119254677497 0 0,0 0.47887568521456547,0.9250354007652991 l -35.24324672809482 17.8619118946142" fill="#b8ff1f" stroke="none" /><path d="M 118.73160827565052 90.50648371742162 l 35.34385769919067 -17.91290334597538 a60.62398747404021,60.62398747404021 0 0,0 0.46374459821631275,0.9348808119251282 l -35.646962310360394 17.301862945551303" fill="#b6ff1f" stroke="none" /><path d="M 119.04729006885535 91.15688171328212 l 21.549259056861512 -10.004711753854485 a44.75846845184769,44.75846845184769 0 0,0 0.31841959442738926,0.7015953682040539 l -21.718280968252248 9.63229437680837" fill="#ff0600" stroke="none" /><path d="M 119.196687751892 91.48605970444005 l 21.614386799413616 -9.58621618029961 a44.644814597921965,44.644814597921965 0 0,0 0.30551783881297573,0.7051772948525352 l -21.776195348069272 9.212739740860473" fill="#ff0300" stroke="none" /><path d="M 119.34039704204932 91.81776055985345 l 21.765434913784492 -9.208187380864626 a44.633130808830714,44.633130808830714 0 0,0 0.29325733799953113,0.7101459049292607 l -21.92071393867022 8.832166905482062" fill="#ff0300" stroke="none" /><path d="M 119.47837535516314 92.15188598940014 l 21.908363095254263 -8.82719057529599 a44.61981513403721,44.61981513403721 0 0,0 0.2809060649431352,0.7148752953910933 l -22.057062710079098 8.448766275009113" fill="#ff0200" stroke="none" /><path d="M 119.61058180528143 92.48833698450437 l 36.721156067047225 -14.06571985746974 a60.32286584176257,60.32286584176257 0 0,0 0.36307302146813497,0.9728551889851683 l -36.957833677016986 13.431541531455238" fill="#bbff1f" stroke="none" /><path d="M 119.7369772167798 92.82701384747503 l 37.01147230933876 -13.451035355796147 a60.37993695586405,60.37993695586405 0 0,0 0.34660073242511136,0.9798869443223734 l -37.237526122573676 12.81195078504716" fill="#baff1f" stroke="none" /><path d="M 119.97218684219823 93.5106431181261 l 22.49670305110496 -7.3096219216069205 a44.65443342814263,44.65443342814263 0 0,0 0.23123451241658158,0.7330765948892722 l -22.619193047289745 6.921295160291229" fill="#ff0300" stroke="none" /><path d="M 120.08093135843002 93.85539295169968 l 22.54499285767106 -6.898590485892509 a44.57683722734001,44.57683722734001 0 0,0 0.2182017139229566,0.7356677054656829 l -22.660400468705717 6.5094933936802954" fill="#ff0100" stroke="none" /><path d="M 120.18372546131832 94.20196356495316 l 22.686692076042913 -6.517045998256155 a44.60419212548006,44.60419212548006 0 0,0 0.20563218504505343,0.7397683779730524 l -22.795511031654332 6.12556631686415" fill="#ff0200" stroke="none" /><path d="M 120.37134235888165 94.90015583598534 l 38.2542447474628 -9.57672221040844 a60.43476701457884,60.43476701457884 0 0,0 0.2439469507959831,1.011317602387904 l -38.4134244985196 8.91681937636113" fill="#b9ff1f" stroke="none" /><path d="M 120.45610955862082 95.25157060432595 l 53.661921504017094 -12.456417715588728 a76.08869359322769,76.08869359322769 0 0,0 0.2851717748318629,1.2783691500054537 l -53.868387665850996 11.53087039603331" fill="#3effb2" stroke="none" /><path d="M 120.6074358757038 95.95851677861258 l 23.10296067840262 -4.530899841654799 a44.54306363842491,44.54306363842491 0 0,0 0.14108331584509057,0.7536727146529787 l -23.177529718157572 4.132549049539257" fill="#ff0100" stroke="none" /><path d="M 120.67395015179393 96.31383870115 l 23.17958870927113 -4.1329161672551145 a44.54515510198496,44.54515510198496 0 0,0 0.12809519023341961,0.7560250638106049 l -23.247295761024773 3.7333053151286717" fill="#ff0100" stroke="none" /><path d="M 120.73433829027371 96.67025291283417 l 23.326961663451915 -3.746098938095537 a44.62584173531508,44.62584173531508 0 0,0 0.11527090068816045,0.759491211735813 l -23.38798845757937 3.344008613967642" fill="#ff0200" stroke="none" /><path d="M 120.78858239683441 97.02765380044208 l 23.33231753602697 -3.3360487998281574 a44.56960464659572,44.56960464659572 0 0,0 0.10205166246756081,0.7604034212526073 l -23.38628519755237 2.9339270365108856" fill="#ff0100" stroke="none" /><path d="M 120.83666639777658 97.38593545837742 l 62.50999919332973 -7.84219362486773 a84.0,84.0 0 0,0 0.16763858798564435,1.436225046700589 l -62.63572813431897 6.7650248398422885" fill="#4dd2ff" stroke="none" /><path d="M 120.87857604477298 97.74499172005257 l 46.80130492492423 -5.054814556880191 a68.07348821661918,68.07348821661918 0 0,0 0.11579907923497973,1.1660809248486304 l -46.88138112984144 4.248458101327126" fill="#3aff2e" stroke="none" /><path d="M 120.94382443527127 98.46500227214037 l 23.676858793178624 -1.7353050567582187 a44.740364907729,44.740364907729 0 0,0 0.04968185085214421,0.7685562429749917 l -23.703221235035187 1.3274897495301916" fill="#ff0500" stroke="none" /><path d="M 120.98425023603335 99.18683210126433 l 23.607075172840084 -0.9148058900207838 a44.62479350243171,44.62479350243171 0 0,0 0.023137542214677207,0.7678223836868338 l -23.61932440951041 0.508313358908951" fill="#ff0200" stroke="none" /><line stroke="#e1ed5e" stroke-width="0.3" x1="184.98032266829074" x2="189.97916517819016" y1="98.17113171792111" y2="98.06355123074" /><path d="M 185.9800911702706 98.14961562048488 a86.0,86.0 0 0,1 -9.607161424134198,41.387399972396054" fill="none" id="id88" stroke="none" /><text fill="#e1ed5e" style="font-size:6.75px; font-family:Arial;" text-anchor="middle"><textPath startOffset="21.466115282336823" xlink:href="#id88">April</textPath></text><line stroke="#e1ed5e" stroke-width="0.3" x1="174.80103733775053" x2="179.2010983576182" y1="140.37084112569926" y2="142.7455964860345" /><path d="M 175.68104954172406 140.8457921977663 a86.0,86.0 0 0,1 -30.038265399797805,32.042727171017184" fill="none" id="id89" stroke="none" /><text fill="#e1ed5e" style="font-size:6.75px; font-family:Arial;" text-anchor="middle"><textPath startOffset="22.206326154141568" xlink:href="#id89">May</textPath></text><line stroke="#e1ed5e" stroke-width="0.3" x1="143.8653032363475" x2="146.44561519142675" y1="172.8068346515853" y2="177.08958963109032" /><path d="M 144.38136562736335 173.6633856474863 a86.0,86.0 0 0,1 -40.68145358897372,12.25698825130547" fill="none" id="id90" stroke="none" /><text fill="#e1ed5e" style="font-size:6.75px; font-family:Arial;" text-anchor="middle"><textPath startOffset="21.466115282336833" xlink:href="#id90">June</textPath></text><line stroke="#e1ed5e" stroke-width="0.3" x1="102.19456741930631" x2="102.32365962044197" y1="184.97166512339345" y2="189.96999836594603" /><path d="M 102.22038585953345 185.97133177190398 a86.0,86.0 0 0,1 -42.740103519485714,-10.115201625700543" fill="none" id="id91" stroke="none" /><text fill="#e1ed5e" style="font-size:6.75px; font-family:Arial;" text-anchor="middle"><textPath startOffset="22.20632615414155" xlink:href="#id91">July</textPath></text><line stroke="#e1ed5e" stroke-width="0.3" x1="58.666819895761336" x2="56.23545636021788" y1="174.27360380694188" y2="178.64263932499728" /><path d="M 58.180547188652646 175.14741091055294 a86.0,86.0 0 0,1 -31.652253787137756,-30.449443065178592" fill="none" id="id92" stroke="none" /><text fill="#e1ed5e" style="font-size:6.75px; font-family:Arial;" text-anchor="middle"><textPath startOffset="22.20632615414155" xlink:href="#id92">August</textPath></text><line stroke="#e1ed5e" stroke-width="0.3" x1="26.63291911575756" x2="22.317208475507996" y1="142.92168965132927" y2="145.44649492493687" /><path d="M 25.769776987707644 143.4266507060508 a86.0,86.0 0 0,1 -11.730757126820373,-40.83630448921669" fill="none" id="id93" stroke="none" /><text fill="#e1ed5e" style="font-size:6.75px; font-family:Arial;" text-anchor="middle"><textPath startOffset="21.46611528233685" xlink:href="#id93">September</textPath></text><line stroke="#e1ed5e" stroke-width="0.3" x1="15.007084014347285" x2="10.007500721073583" y1="101.09737516637583" y2="101.16192664675087" /><path d="M 14.007167355692545 101.11028546245083 a86.0,86.0 0 0,1 10.666146001902534,-42.60595125391555" fill="none" id="id94" stroke="none" /><text fill="#e1ed5e" style="font-size:6.75px; font-family:Arial;" text-anchor="middle"><textPath startOffset="22.20632615414155" xlink:href="#id94">October</textPath></text><line stroke="#e1ed5e" stroke-width="0.3" x1="26.266209847984243" x2="21.928928074336255" y1="57.711370442889674" y2="55.22380399835377" /><path d="M 25.398753493254645 57.213857153982495 a86.0,86.0 0 0,1 29.58750427330803,-30.492523968695096" fill="none" id="id95" stroke="none" /><text fill="#e1ed5e" style="font-size:6.75px; font-family:Arial;" text-anchor="middle"><textPath startOffset="21.46611528233685" xlink:href="#id95">November</textPath></text><line stroke="#e1ed5e" stroke-width="0.3" x1="56.762969772571076" x2="54.21961505331055" y1="26.818313649435495" y2="22.513508569990535" /><path d="M 56.25429882871897 25.957352633546506 a86.0,86.0 0 0,1 42.265352541879196,-11.944610805530505" fill="none" id="id96" stroke="none" /><text fill="#e1ed5e" style="font-size:6.75px; font-family:Arial;" text-anchor="middle"><textPath startOffset="22.20632615414155" xlink:href="#id96">December</textPath></text></svg>