<?xml version="1.0" encoding="utf-8" ?>
<svg baseProfile="full" height="200mm" version="1.1" viewBox="0,0,200,200" width="200mm" xmlns="http://www.w3.org/2000/svg" xmlns:ev="http://www.w3.org/2001/xml-events" xmlns:xlink="http://www.w3.org/1999/xlink"><defs /><rect fill="#1a1a1a" height="200" width="200" x="0" y="0" /><text alignment-baseline="middle" fill="#e1ed5e" style="dominant-baseline: central; font-size:9.0px; font-family:Arial;" text-anchor="middle" x="100.0" y="100.0">2020</text><line stroke="#e1ed5e" stroke-width="0.3" x1="100.0" x2="100.0" y1="15.0" y2="10.0" /><path d="M 100.0 14.0 a86.0,86.0 0 0,1 42.35913384403234,11.155469271406648" fill="none" id="id61" stroke="none" /><text fill="#e1ed5e" style="font-size:6.75px; font-family:Arial;" text-anchor="middle"><textPath startOffset="22.145653131862478" xlink:href="#id61">January</textPath></text><line stroke="#e1ed5e" stroke-width="0.3" x1="143.13028292997686" x2="145.6673583964461" y1="26.7553504044142" y2="22.446841604673864" /><path d="M 143.63769802327073 25.89364864446614 a86.0,86.0 0 0,1 29.32050498858742,28.57503671076993" fill="none" id="id62" stroke="none" /><text fill="#e1ed5e" style="font-size:6.75px; font-family:Arial;" text-anchor="middle"><textPath startOffset="20.669276256404974" xlink:href="#id62">February</textPath></text><line stroke="#e1ed5e" stroke-width="0.3" x1="172.87174338648825" x2="177.1583165268699" y1="56.24261187166439" y2="53.66864786411523" /><path d="M 173.72905801456457 55.72781907015455 a86.0,86.0 0 0,1 12.242430191666344,42.057860355516425" fill="none" id="id63" stroke="none" /><text fill="#e1ed5e" style="font-size:6.75px; font-family:Arial;" text-anchor="middle"><textPath startOffset="22.145653131862474" xlink:href="#id63">March</textPath></text><line stroke="#e1ed5e" stroke-width="0.3" x1="184.99686870605535" x2="189.99668451229388" y1="99.2704041080226" y2="99.22748670261217" /><path d="M 185.99683186730306 99.26182062694052 a86.0,86.0 0 0,1 -10.086455211305974,41.156179273409016" fill="none" id="id64" stroke="none" /><text fill="#e1ed5e" style="font-size:6.75px; font-family:Arial;" text-anchor="middle"><textPath startOffset="21.40746469413373" xlink:href="#id64">April</textPath></text><line stroke="#e1ed5e" stroke-width="0.3" x1="174.33088141563837" x2="178.70328620479359" y1="141.23008692659167" y2="143.65538615756765" /><path d="M 175.20536237346943 141.71514677278685 a86.0,86.0 0 0,1 -30.301960400862466,31.631185727798858" fill="none" id="id65" stroke="none" /><text fill="#e1ed5e" style="font-size:6.75px; font-family:Arial;" text-anchor="middle"><textPath startOffset="22.145653131862474" xlink:href="#id65">May</textPath></text><line stroke="#e1ed5e" stroke-width="0.3" x1="143.1302829299769" x2="145.66735839644613" y1="173.24464959558577" y2="177.55315839532614" /><path d="M 143.63769802327073 174.10635135553383 a86.0,86.0 0 0,1 -40.68552437913181,11.842963189579606" fill="none" id="id66" stroke="none" /><text fill="#e1ed5e" style="font-size:6.75px; font-family:Arial;" text-anchor="middle"><textPath startOffset="21.407464694133747" xlink:href="#id66">June</textPath></text><line stroke="#e1ed5e" stroke-width="0.3" x1="101.45913802915013" x2="101.54496967792366" y1="184.9874750549273" y2="189.98673829345242" /><path d="M 101.47630435890484 185.9873277026323 a86.0,86.0 0 0,1 -42.54439059252881,-10.42667462771756" fill="none" id="id67" stroke="none" /><text fill="#e1ed5e" style="font-size:6.75px; font-family:Arial;" text-anchor="middle"><textPath startOffset="22.145653131862474" xlink:href="#id67">July</textPath></text><path d="M 91.92203290615298 119.3841803445677 l -12.250595597078275 29.396969760252087 a52.847431977607386,52.847431977607386 0 0,0 -0.8343978481471974,-0.3561548250110336 l 12.753428520395904 -29.182340285581652" fill="#b9ff1f" stroke="none" /><line stroke="#e1ed5e" stroke-width="0.3" x1="58.13341422392154" x2="55.67067388415222" y1="173.97424548756322" y2="178.32567169271397" /><path d="M 57.64086615596768 174.84453072859336 a86.0,86.0 0 0,1 -31.369924170532247,-30.572349798747897" fill="none" id="id68" stroke="none" /><text fill="#e1ed5e" style="font-size:6.75px; font-family:Arial;" text-anchor="middle"><textPath startOffset="22.145653131862474" xlink:href="#id68">August</textPath></text><line stroke="#e1ed5e" stroke-width="0.3" x1="26.387840678322732" x2="22.057713659400548" y1="142.50000000000003" y2="145.00000000000006" /><path d="M 25.521815274538298 143.00000000000003 a86.0,86.0 0 0,1 -11.493303480769221,-40.785679425670985" fill="none" id="id69" stroke="none" /><text fill="#e1ed5e" style="font-size:6.75px; font-family:Arial;" text-anchor="middle"><textPath startOffset="21.40746469413373" xlink:href="#id69">September</textPath></text><path d="M 79.48165901384964 104.47187691870673 l -28.195982064458022 6.145183057413234 a49.85787031969541,49.85787031969541 0 0,0 -0.17507778527600942,-0.8378105814174281 l 28.2973175605584 -5.660256024710397" fill="#e2ff1b" stroke="none" /><path d="M 79.407916724674 104.11899336999214 l -28.439013656700563 5.688599212369446 a50.00237332986684,50.00237332986684 0 0,0 -0.161135523710661,-0.8431291494453549 l 28.53247547269338 -5.199567497890777" fill="#e0ff1b" stroke="none" /><path d="M 79.2786578344484 103.40968896794605 l -10.576783215326165 1.7404056531438736 a31.719018379567245,31.719018379567245 0 0,0 -0.08379637193034563,-0.5380328192540668 l 10.605101079394776 -1.5585846519583568" fill="#ff0000" stroke="none" /><path d="M 79.22317932658666 103.0534771498775 l -28.521968505207866 4.191747162337614 a49.82834424112899,49.82834424112899 0 0,0 -0.11710961996543869,-0.8473468719780044 l 28.589722641728518 -3.7015119821595235" fill="#e2ff1b" stroke="none" /><path d="M 79.17382384314188 102.69636545807758 l -28.49775858716351 3.689605394111569 a49.73561261669062,49.73561261669062 0 0,0 -0.10235568647100167,-0.8476519160762824 l 28.556896359894175 -3.199859801111887" fill="#e3ff1b" stroke="none" /><path d="M 79.0935383218832 101.97986365728391 l -46.54516511607094 4.4078755293176295 a67.75341444605158,67.75341444605158 0 0,0 -0.09971488525647663,-1.1588381160693093 l 46.613973624025164 -3.6082163658726576" fill="#35ff66" stroke="none" /><path d="M 79.03789590574601 101.26102812881392 l -28.790272471938383 1.7319512993584993 a49.84232036975879,49.84232036975879 0 0,0 -0.044047344945667345,-0.854506724603176 l 28.815761406340624 -1.2374727813785926" fill="#e2ff1b" stroke="none" /><line stroke="#e1ed5e" stroke-width="0.3" x1="15.003131293944662" x2="10.003315487706104" y1="100.72959589197737" y2="100.7725132973878" /><path d="M 14.003168132696942 100.73817937305945 a86.0,86.0 0 0,1 10.791469493833604,-42.45332614584628" fill="none" id="id70" stroke="none" /><text fill="#e1ed5e" style="font-size:6.75px; font-family:Arial;" text-anchor="middle"><textPath startOffset="22.145653131862435" xlink:href="#id70">October</textPath></text><path d="M 79.2786578344484 96.59031103205396 l -45.779159543443114 -7.5329432818602555 a67.3947915502564,67.3947915502564 0 0,0 0.1976438351283507,-1.139957119215021 l 45.64310089082253 8.317693433995869" fill="#35ff61" stroke="none" /><path d="M 79.407916724674 95.88100663000787 l -28.245779162835962 -5.649946901748888 a49.80531097746178,49.80531097746178 0 0,0 0.1748932211705869,-0.836927375360023 l 28.144628230841008 6.13399072839432" fill="#e2ff1b" stroke="none" /><path d="M 79.48165901384962 95.52812308129327 l -28.73243669976054 -6.262100848338027 a50.40691799118878,50.40691799118878 0 0,0 0.1915202170500263,-0.8438734141740035 l 28.620705621152855 6.7544085964510385" fill="#daff1c" stroke="none" /><path d="M 79.56144815229197 95.17655741523228 l -28.209914003804833 -6.657462893284489 a49.984841905339486,49.984841905339486 0 0,0 0.20425347240899863,-0.8334238690970809 l 28.09147300487954 7.1407425869896874" fill="#e0ff1b" stroke="none" /><path d="M 79.64726062577567 94.8264132398404 l -27.847117034713857 -7.07862825492016 a49.73271489289525,49.73271489289525 0 0,0 0.21742792263367944,-0.8256092372444404 l 27.721499631275453 7.555617996537385" fill="#e3ff1b" stroke="none" /><path d="M 79.73907114497095 94.47779374421319 l -27.914396981279776 -7.608193027057477 a49.93264868561894,49.93264868561894 0 0,0 0.2324995087233314,-0.8250587348783047 l 27.77967898048186 8.086259685838796" fill="#e1ff1b" stroke="none" /><path d="M 79.83685265289637 94.1308016681162 l -27.890129437304815 -8.118410204097751 a50.04768328579088,50.04768328579088 0 0,0 0.24719666122357456,-0.8228372888564122 l 27.74665645607761 8.595985096544887" fill="#dfff1b" stroke="none" /><path d="M 79.94057633289273 93.78553927170692 l -27.627239658093362 -8.558989467274216 a49.922667093935814,49.922667093935814 0 0,0 0.2606326569524297,-0.8164280857511114 l 27.476242285363675 9.03198658671672" fill="#e1ff1b" stroke="none" /><path d="M 80.05021161711548 93.44210830539832 l -27.477984571980222 -9.032559310933788 a49.92450109930195,49.92450109930195 0 0,0 0.2746194141759936,-0.8118635013392616 l 27.318879736231864 9.50292448674721" fill="#e1ff1b" stroke="none" /><path d="M 80.16572619554312 93.10060997987247 l -27.38977070058054 -9.527584044075423 a49.99955856124884,49.99955856124884 0 0,0 0.28894942499386006,-0.8082429679966194 l 27.222181105542738 9.996361968452964" fill="#e0ff1b" stroke="none" /><path d="M 80.28708602549916 92.7611449362534 l -27.173260161941535 -9.978397520336927 a49.947443495107215,49.947443495107215 0 0,0 0.30246582068999445,-0.8023265244814421 l 26.997963657437104 10.443392325012514" fill="#e0ff1b" stroke="none" /><path d="M 80.41425534168474 92.42381321644754 l -27.03814407977185 -10.458934975545375 a49.990525281567216,49.990525281567216 0 0,0 0.31646698428907866,-0.7977035319434213 l 26.85461842051664 10.92153952470238" fill="#e0ff1b" stroke="none" /><path d="M 80.5471966667186 92.08871423366112 l -26.743780853376215 -10.87646285105949 a49.87087214622879,49.87087214622879 0 0,0 0.3293238608146445,-0.7902573798131489 l 26.553131148025095 11.333952740313903" fill="#e1ff1b" stroke="none" /><path d="M 80.83023694016515 91.42560881287825 l -26.30451430429625 -11.765674668397212 a49.815943038316306,49.815943038316306 0 0,0 0.355865016840168,-0.7776292852060201 l 26.098664822601037 12.215492935817904" fill="#e2ff1b" stroke="none" /><path d="M 80.9802524753101 91.09779779509293 l -26.116925674664838 -12.224039936628238 a49.83610512999718,49.83610512999718 0 0,0 0.36931103146277844,-0.7717180159069074 l 25.903235385242155 12.670570454600233" fill="#e2ff1b" stroke="none" /><path d="M 81.1358732173502 90.77261029715801 l -25.846581459494917 -12.642858180552835 a49.77303661617727,49.77303661617727 0 0,0 0.3820201124528808,-0.7642961300338753 l 25.625741433830292 13.08468616675048" fill="#e3ff1b" stroke="none" /><path d="M 81.29705330413844 90.45014215332179 l -25.718715292409307 -13.132159281405894 a49.877429312253945,49.877429312253945 0 0,0 0.39591261936312117,-0.759214650664399 l 25.489494604071243 13.57172017517478" fill="#e1ff1b" stroke="none" /><line stroke="#e1ed5e" stroke-width="0.3" x1="26.387840678322718" x2="22.05771365940052" y1="57.49999999999999" y2="54.99999999999999" /><path d="M 25.521815274538284 56.99999999999999 a86.0,86.0 0 0,1 29.574782752854787,-30.34633250058573" fill="none" id="id71" stroke="none" /><text fill="#e1ed5e" style="font-size:6.75px; font-family:Arial;" text-anchor="middle"><textPath startOffset="21.40746469413373" xlink:href="#id71">November</textPath></text><path d="M 81.81346652052679 89.5 l -50.09189852096144 -28.920571095296516 a78.84114219059302,78.84114219059302 0 0,0 0.6867675061931287,-1.1662813672337156 l 49.58805730463854 29.776203630823805" fill="#45fff2" stroke="none" /><path d="M 81.99639281039701 89.18935116829357 l -24.66582191765304 -14.81111735492352 a49.771026540161714,49.771026540161714 0 0,0 0.44611912556187133,-0.7287020644514298 l 24.407934827635778 15.232356535499493" fill="#e3ff1b" stroke="none" /><path d="M 82.18462484594161 88.88188828441811 l -24.51814411657147 -15.301135282839132 a49.90093652227749,49.90093652227749 0 0,0 0.45975944706477073,-0.7228182148002115 l 24.25186697788081 15.719767172318017" fill="#e1ff1b" stroke="none" /><path d="M 82.37810715431573 88.57770195909679 l -24.1737342173654 -15.66912246092516 a49.80782575459821,49.80782575459821 0 0,0 0.4712189394253983,-0.7134855334840516 l 23.90119083901927 16.081787872748272" fill="#e2ff1b" stroke="none" /><path d="M 82.576782715395 88.27688183743585 l -23.904210280195453 -16.083819487524984 a49.81146505173054,49.81146505173054 0 0,0 0.4834327524670487,-0.7053428334122648 l 23.624587790913093 16.491797056007286" fill="#e2ff1b" stroke="none" /><path d="M 83.42222388311158 87.10902102172516 l -27.23780782121675 -21.1802841081859 a55.5036608174989,55.5036608174989 0 0,0 0.5913348641504346,-0.7471322834681431 l 26.870206526424752 21.644736335568727" fill="#95ff23" stroke="none" /><path d="M 83.64595745247003 86.82634096563983 l -26.795851680037032 -21.584841334622187 a55.40818278693831,55.40818278693831 0 0,0 0.6030341150553403,-0.735603568391964 l 26.42137074574306 22.041647184712645" fill="#97ff23" stroke="none" /><path d="M 88.72937992617638 82.28071324371311 l -31.697534848789573 -49.833789602895706 a80.06048003255566,80.06048003255566 0 0,0 1.1659698409653143,-0.7276514155189453 l 30.83740087903456 50.37057681525619" fill="#47feff" stroke="none" /><line stroke="#e1ed5e" stroke-width="0.3" x1="56.869717070023135" x2="54.33264160355391" y1="26.7553504044142" y2="22.446841604673864" /><path d="M 56.362301976729285 25.89364864446614 a86.0,86.0 0 0,1 42.16139366436587,-11.88097634709845" fill="none" id="id72" stroke="none" /><text fill="#e1ed5e" style="font-size:6.75px; font-family:Arial;" text-anchor="middle"><textPath startOffset="22.145653131862474" xlink:href="#id72">December</textPath></text><path d="M 90.61103034731259 81.2157712731953 l -28.166908958062205 -56.35268618041411 a84.0,84.0 0 0,0 1.2953590029517876,-0.6336249996111434 l 27.195389705848363 56.827904930122465" fill="#4dd2ff" stroke="none" /><path d="M 90.93487009805054 81.0573650232925 l -24.783401034578347 -51.78777627647833 a78.41246152625152,78.41246152625152 0 0,0 1.2191692219731496,-0.5706327553462656 l 23.890743098733676 52.20558526339514" fill="#45ffed" stroke="none" /><path d="M 92.25597844496254 80.48000691201159 l -12.752231942872957 -32.14395487050019 a55.581111234915255,55.581111234915255 0 0,0 0.8899005370767158,-0.34423264498214706 l 12.198559143302711 32.35812740362037" fill="#94ff23" stroke="none" /><path d="M 92.592206182469 80.34994680014964 l -12.171513898705706 -32.28638667915847 a55.504441965963274,55.504441965963274 0 0,0 0.8944431091745669,-0.3284518990169011 l 11.615481637877012 32.49056942718409" fill="#95ff23" stroke="none" /><path d="M 92.93061703081487 80.22567764915836 l -11.671977053368606 -32.648597159186316 a55.67226477744412,55.67226477744412 0 0,0 0.9026707054239017,-0.31399572869986636 l 11.1098005758997 32.84415132045477" fill="#93ff23" stroke="none" /><path d="M 95.35216902796891 79.52079915486377 l -12.709095465054222 -55.99861960451568 a78.42270026001137,78.42270026001137 0 0,0 1.3154010677042687,-0.2866855403894225 l 11.745931980730836 56.208536603038816" fill="#45ffed" stroke="none" /><path d="M 95.70440661134978 79.44403061299748 l -11.748402438992922 -56.220358640138855 a78.43477766557794,78.43477766557794 0 0,0 1.320331883875155,-0.2641033548260461 l 10.78157406958679 56.41375139162777" fill="#45ffee" stroke="none" /><path d="M 96.41257539226777 79.30868818359171 l -5.925591117901885 -34.177234903496284 a55.68711599059977,55.68711599059977 0 0,0 0.9432933308547288,-0.15521855862693607 l 5.3380202839940845 34.27391946061889" fill="#93ff23" stroke="none" /><path d="M 96.76829788921471 79.25015418208739 l -5.323463387117499 -34.18045374025799 a55.592523474356376,55.592523474356376 0 0,0 0.944212259010398,-0.1387666863396341 l 4.735926022499417 34.26680149989651" fill="#94ff23" stroke="none" /><path d="M 97.12497278360702 79.19773525538626 l -4.74027809101086 -34.298290899664806 a55.624312195596715,55.624312195596715 0 0,0 0.946996440571248,-0.12260764876119479 l 4.150803828548818 34.374610144626395" fill="#94ff23" stroke="none" /><path d="M 97.48249496171623 79.15144685158666 l -4.141598836624336 -34.298379606673194 a55.54752790818735,55.54752790818735 0 0,0 0.9476516668729134,-0.106186345885333 l 3.5522112681506237 34.3644217130655" fill="#95ff23" stroke="none" /><path d="M 97.84075906011542 79.11130261209362 l -5.897201822771913 -57.05007812508281 a78.35406178656012,78.35406178656012 0 0,0 1.3391098564644712,-0.12681509567445468 l 4.916992402922427 57.14290497626245" fill="#45ffed" stroke="none" /><path d="M 98.1996594967304 79.07731436759882 l -4.928493139321113 -57.276560966212045 a78.4882116676153,78.4882116676153 0 0,0 1.3433855627612616,-0.10398653872180674 l 3.944538581784635 57.352725271928904" fill="#45ffee" stroke="none" /></svg>